<svg id="Layer_1" data-name="Layer 1" xmlns="http://www.w3.org/2000/svg" width="760" height="330" viewBox="0 0 760 330"><defs><style>.cls-1{isolation:isolate;}.cls-2{fill:#707070;}.cls-3{fill:#f28705;}.cls-4{fill:none;stroke:#707070;stroke-width:0.5px;}.cls-5{fill:#fdfafa;}</style></defs><g id="Priser_fra_XXX_kr._måned" data-name="Priser fra XXX kr. måned" class="cls-1"><g class="cls-1"><path class="cls-2" d="M294.83,304.56v4.78h-1.61V297.13h4.5a4.51,4.51,0,0,1,3.14,1,3.48,3.48,0,0,1,1.14,2.71,3.42,3.42,0,0,1-1.11,2.74,4.72,4.72,0,0,1-3.18,1Zm0-1.31h2.89a2.93,2.93,0,0,0,2-.61,2.24,2.24,0,0,0,.69-1.76,2.3,2.3,0,0,0-.69-1.75,2.65,2.65,0,0,0-1.88-.68h-3Z"/><path class="cls-2" d="M308.2,301.66a4.51,4.51,0,0,0-.76-.06,2,2,0,0,0-2.07,1.3v6.44h-1.56v-9.07h1.51l0,1.05a2.42,2.42,0,0,1,2.16-1.22,1.58,1.58,0,0,1,.69.12Z"/><path class="cls-2" d="M309.63,297.86a.93.93,0,0,1,.24-.64.87.87,0,0,1,.68-.26.9.9,0,0,1,.69.26,1,1,0,0,1,.23.64.92.92,0,0,1-.23.63.9.9,0,0,1-.69.25.86.86,0,0,1-.68-.25A.88.88,0,0,1,309.63,297.86Zm1.68,11.48h-1.55v-9.07h1.55Z"/><path class="cls-2" d="M319.08,306.94a1.16,1.16,0,0,0-.47-1,4.69,4.69,0,0,0-1.66-.6,8.23,8.23,0,0,1-1.87-.6,2.74,2.74,0,0,1-1-.84,2,2,0,0,1-.33-1.16,2.37,2.37,0,0,1,.94-1.89,3.72,3.72,0,0,1,2.41-.77,3.82,3.82,0,0,1,2.51.8,2.53,2.53,0,0,1,1,2H319a1.39,1.39,0,0,0-.54-1.1,2,2,0,0,0-1.37-.46,2.09,2.09,0,0,0-1.32.37,1.14,1.14,0,0,0-.48,1,1,1,0,0,0,.44.85,5.53,5.53,0,0,0,1.61.54,8.6,8.6,0,0,1,1.88.62,2.65,2.65,0,0,1,1.07.87,2.08,2.08,0,0,1,.35,1.24,2.32,2.32,0,0,1-1,1.95,4.08,4.08,0,0,1-2.53.73,4.63,4.63,0,0,1-1.92-.38,3.22,3.22,0,0,1-1.32-1.08,2.64,2.64,0,0,1-.47-1.5H315a1.65,1.65,0,0,0,.62,1.24,2.47,2.47,0,0,0,1.54.46,2.51,2.51,0,0,0,1.42-.36A1.11,1.11,0,0,0,319.08,306.94Z"/><path class="cls-2" d="M326.42,309.51a4,4,0,0,1-3-1.21,4.51,4.51,0,0,1-1.16-3.24v-.29a5.37,5.37,0,0,1,.52-2.41,4,4,0,0,1,1.44-1.66,3.64,3.64,0,0,1,2-.6,3.4,3.4,0,0,1,2.75,1.17,5.06,5.06,0,0,1,1,3.34v.64h-6.15a3.21,3.21,0,0,0,.79,2.17,2.46,2.46,0,0,0,1.9.83,2.76,2.76,0,0,0,1.4-.34,3.34,3.34,0,0,0,1-.89l.95.74A3.8,3.8,0,0,1,326.42,309.51Zm-.19-8.13a2.06,2.06,0,0,0-1.58.68,3.32,3.32,0,0,0-.79,1.92h4.55v-.12a3,3,0,0,0-.64-1.83A1.92,1.92,0,0,0,326.23,301.38Z"/><path class="cls-2" d="M336.14,301.66a4.51,4.51,0,0,0-.76-.06,2,2,0,0,0-2.07,1.3v6.44h-1.55v-9.07h1.51l0,1.05a2.43,2.43,0,0,1,2.17-1.22,1.5,1.5,0,0,1,.68.12Z"/><path class="cls-2" d="M342.58,309.34v-7.87h-1.43v-1.2h1.43v-.93a3.09,3.09,0,0,1,.79-2.26,2.94,2.94,0,0,1,2.2-.8,4,4,0,0,1,1.07.15l-.09,1.25a4.44,4.44,0,0,0-.84-.08,1.51,1.51,0,0,0-1.16.44,1.78,1.78,0,0,0-.41,1.27v1h1.94v1.2h-1.94v7.87Z"/><path class="cls-2" d="M352.17,301.66a4.51,4.51,0,0,0-.76-.06,2,2,0,0,0-2.07,1.3v6.44h-1.55v-9.07h1.51l0,1.05a2.43,2.43,0,0,1,2.17-1.22,1.5,1.5,0,0,1,.68.12Z"/><path class="cls-2" d="M358.87,309.34a3.22,3.22,0,0,1-.22-.95,3.45,3.45,0,0,1-2.58,1.12,3.21,3.21,0,0,1-2.21-.76,2.44,2.44,0,0,1-.86-1.92,2.55,2.55,0,0,1,1.08-2.2,5,5,0,0,1,3-.79h1.51v-.71a1.77,1.77,0,0,0-.48-1.3,2,2,0,0,0-1.44-.48,2.27,2.27,0,0,0-1.39.42,1.25,1.25,0,0,0-.56,1h-1.56a2.15,2.15,0,0,1,.48-1.32,3.34,3.34,0,0,1,1.31-1,4.36,4.36,0,0,1,1.82-.37,3.58,3.58,0,0,1,2.45.78,2.86,2.86,0,0,1,.93,2.16v4.18a5,5,0,0,0,.32,2v.13Zm-2.58-1.18a2.67,2.67,0,0,0,1.39-.38,2.22,2.22,0,0,0,.94-1v-1.86h-1.21c-1.9,0-2.85.56-2.85,1.67a1.41,1.41,0,0,0,.48,1.14A1.85,1.85,0,0,0,356.29,308.16Z"/><path class="cls-2" d="M374.71,309.34h-8v-1.11l4.23-4.7a10.21,10.21,0,0,0,1.3-1.73,3,3,0,0,0,.35-1.38,2.18,2.18,0,0,0-.58-1.57,2,2,0,0,0-1.54-.61,2.4,2.4,0,0,0-1.8.66,2.5,2.5,0,0,0-.64,1.83h-1.55a3.64,3.64,0,0,1,1.08-2.73,4.07,4.07,0,0,1,2.91-1,3.84,3.84,0,0,1,2.69.9,3,3,0,0,1,1,2.37c0,1.21-.76,2.64-2.3,4.3l-3.27,3.55h6.14Z"/><path class="cls-2" d="M382.9,305.24h1.69v1.27H382.9v2.83h-1.56v-2.83h-5.56v-.92l5.47-8.46h1.65Zm-5.36,0h3.8v-6l-.18.34Z"/><path class="cls-2" d="M391.94,304a3.9,3.9,0,0,1-1.16.93,3.42,3.42,0,0,1-3.32-.17,3.42,3.42,0,0,1-1.21-1.46,5,5,0,0,1-.43-2.09,5.12,5.12,0,0,1,.47-2.21,3.46,3.46,0,0,1,1.32-1.5,3.81,3.81,0,0,1,2-.52,3.43,3.43,0,0,1,2.86,1.36,5.86,5.86,0,0,1,1,3.69v.46c0,2.37-.47,4.11-1.41,5.2a5.37,5.37,0,0,1-4.25,1.68h-.3V308h.33a3.69,3.69,0,0,0,4.07-4.06Zm-2.39,0a2.4,2.4,0,0,0,1.44-.48,2.8,2.8,0,0,0,1-1.18v-.63a4.3,4.3,0,0,0-.66-2.48,2,2,0,0,0-1.68-1A2,2,0,0,0,388,299a3.19,3.19,0,0,0-.62,2.07,3.38,3.38,0,0,0,.6,2.06A1.89,1.89,0,0,0,389.55,304Z"/><path class="cls-2" d="M402.59,305.14l-1,1v3.18h-1.56V296.46h1.56v7.79l.83-1,2.82-3h1.89l-3.53,3.79,3.94,5.28h-1.82Z"/><path class="cls-2" d="M413.15,301.66a4.51,4.51,0,0,0-.76-.06,2,2,0,0,0-2.07,1.3v6.44h-1.56v-9.07h1.51l0,1.05a2.42,2.42,0,0,1,2.16-1.22,1.58,1.58,0,0,1,.69.12Z"/><path class="cls-2" d="M413.58,308.53a1,1,0,0,1,.24-.67.91.91,0,0,1,.71-.27,1,1,0,0,1,.73.27,1,1,0,0,1,.25.67.94.94,0,0,1-.25.65,1,1,0,0,1-.73.26.86.86,0,0,1-.95-.91Z"/><path class="cls-2" d="M418.38,310.39H417l5.1-13.26h1.33Z"/><path class="cls-2" d="M426.61,300.27l0,1a3.34,3.34,0,0,1,2.69-1.17,2.6,2.6,0,0,1,2.59,1.46,3.37,3.37,0,0,1,2.9-1.46q3,0,3,3.16v6.08h-1.55v-6a2.12,2.12,0,0,0-.44-1.46,2,2,0,0,0-1.5-.48,2.07,2.07,0,0,0-1.43.51,2.11,2.11,0,0,0-.66,1.39v6h-1.56V303.4a1.73,1.73,0,0,0-1.94-2,2.07,2.07,0,0,0-2.09,1.3v6.62h-1.55v-9.07Z"/><path class="cls-2" d="M445.81,309.34a3.22,3.22,0,0,1-.22-.95,3.45,3.45,0,0,1-2.58,1.12,3.21,3.21,0,0,1-2.21-.76,2.44,2.44,0,0,1-.86-1.92,2.55,2.55,0,0,1,1.08-2.2,5,5,0,0,1,3-.79h1.51v-.71a1.77,1.77,0,0,0-.48-1.3,2,2,0,0,0-1.44-.48,2.25,2.25,0,0,0-1.39.42,1.25,1.25,0,0,0-.56,1h-1.56a2.15,2.15,0,0,1,.48-1.32,3.34,3.34,0,0,1,1.31-1,4.36,4.36,0,0,1,1.82-.37,3.58,3.58,0,0,1,2.45.78,2.86,2.86,0,0,1,.93,2.16v4.18a5.15,5.15,0,0,0,.31,2v.13Zm-2.58-1.18a2.67,2.67,0,0,0,1.39-.38,2.22,2.22,0,0,0,.94-1v-1.86h-1.21c-1.9,0-2.85.56-2.85,1.67a1.41,1.41,0,0,0,.48,1.14A1.85,1.85,0,0,0,443.23,308.16Zm2.48-10.72a1.63,1.63,0,0,1-.52,1.22,1.81,1.81,0,0,1-1.29.49,1.77,1.77,0,0,1-1.28-.49,1.61,1.61,0,0,1-.52-1.22,1.65,1.65,0,0,1,.52-1.23,1.87,1.87,0,0,1,2.57,0A1.69,1.69,0,0,1,445.71,297.44Zm-2.78,0a.93.93,0,0,0,.28.68.94.94,0,0,0,.69.29,1,1,0,0,0,.69-.28.93.93,0,0,0,.29-.69,1,1,0,0,0-.29-.7.91.91,0,0,0-.69-.29.89.89,0,0,0-.69.3A.94.94,0,0,0,442.93,297.44Z"/><path class="cls-2" d="M451,300.27l.05,1.14a3.31,3.31,0,0,1,2.72-1.31q2.86,0,2.9,3.25v6h-1.56v-6a2.06,2.06,0,0,0-.44-1.45,1.79,1.79,0,0,0-1.38-.47,2.22,2.22,0,0,0-1.32.4,2.71,2.71,0,0,0-.89,1.06v6.46h-1.55v-9.07Z"/><path class="cls-2" d="M462.79,309.51a4,4,0,0,1-3-1.21,4.51,4.51,0,0,1-1.16-3.24v-.29a5.37,5.37,0,0,1,.52-2.41,4,4,0,0,1,1.44-1.66,3.64,3.64,0,0,1,2-.6,3.39,3.39,0,0,1,2.75,1.17,5,5,0,0,1,1,3.34v.64h-6.15a3.26,3.26,0,0,0,.79,2.17,2.48,2.48,0,0,0,1.91.83,2.72,2.72,0,0,0,1.39-.34,3.51,3.51,0,0,0,1-.89l1,.74A3.82,3.82,0,0,1,462.79,309.51Zm-.19-8.13a2.06,2.06,0,0,0-1.58.68,3.32,3.32,0,0,0-.78,1.92h4.54v-.12a2.91,2.91,0,0,0-.64-1.83A1.92,1.92,0,0,0,462.6,301.38Z"/><path class="cls-2" d="M467.75,304.73a5.33,5.33,0,0,1,1-3.36,3.37,3.37,0,0,1,5.12-.18v-4.73h1.55v12.88H474l-.07-1a3.17,3.17,0,0,1-2.59,1.14,3.1,3.1,0,0,1-2.57-1.29,5.32,5.32,0,0,1-1-3.37Zm1.55.18a4,4,0,0,0,.64,2.41,2.07,2.07,0,0,0,1.76.88,2.27,2.27,0,0,0,2.16-1.33V302.7a2.3,2.3,0,0,0-2.14-1.28,2.07,2.07,0,0,0-1.78.88A4.46,4.46,0,0,0,469.3,304.91Z"/><path class="cls-2" d="M479.41,301.09l-2.53-.75.38-1.26,2.54.93-.08-2.88H481l-.09,2.93,2.49-.93.39,1.28-2.58.76,1.66,2.27-1,.79-1.56-2.41-1.51,2.35-1-.76Z"/></g></g><g id="Group_16" data-name="Group 16"><g id="Send_os_en_mail_med_dine_oplysninger" data-name="Send os en mail med dine oplysninger" class="cls-1"><g class="cls-1"><path class="cls-2" d="M54.1,138.88a10.15,10.15,0,0,1-4-1.95,3.75,3.75,0,0,1-1.26-2.86,3.92,3.92,0,0,1,1.54-3.18,6.1,6.1,0,0,1,4-1.26,6.57,6.57,0,0,1,3,.65,4.85,4.85,0,0,1,2,1.79,4.5,4.5,0,0,1,.73,2.49H58a3,3,0,0,0-.94-2.33,3.85,3.85,0,0,0-2.65-.85,4,4,0,0,0-2.48.7A2.36,2.36,0,0,0,51,134a2.1,2.1,0,0,0,.84,1.68A8.39,8.39,0,0,0,54.71,137a13.87,13.87,0,0,1,3.18,1.26,4.9,4.9,0,0,1,1.7,1.61,4.08,4.08,0,0,1,.55,2.16,3.83,3.83,0,0,1-1.54,3.17,6.62,6.62,0,0,1-4.13,1.19,7.62,7.62,0,0,1-3.13-.64A5.31,5.31,0,0,1,49.09,144a4.31,4.31,0,0,1-.78-2.53h2.15a2.82,2.82,0,0,0,1.09,2.33,4.61,4.61,0,0,0,2.92.85,4.27,4.27,0,0,0,2.61-.69A2.25,2.25,0,0,0,58,142a2.2,2.2,0,0,0-.84-1.85A9.45,9.45,0,0,0,54.1,138.88Z"/><path class="cls-2" d="M67.59,146.36a5.3,5.3,0,0,1-4-1.62A6,6,0,0,1,62,140.42V140a7.28,7.28,0,0,1,.69-3.22,5.38,5.38,0,0,1,1.92-2.21,4.89,4.89,0,0,1,2.68-.8A4.54,4.54,0,0,1,71,135.36a6.78,6.78,0,0,1,1.31,4.46v.86h-8.2a4.31,4.31,0,0,0,1,2.89,3.28,3.28,0,0,0,2.54,1.1,3.61,3.61,0,0,0,1.86-.45A4.79,4.79,0,0,0,70.89,143l1.26,1A5.07,5.07,0,0,1,67.59,146.36Zm-.26-10.85a2.76,2.76,0,0,0-2.1.91,4.39,4.39,0,0,0-1,2.56h6.06v-.16a3.92,3.92,0,0,0-.85-2.44A2.6,2.6,0,0,0,67.33,135.51Z"/><path class="cls-2" d="M76.66,134l.07,1.52a4.4,4.4,0,0,1,3.62-1.74q3.84,0,3.87,4.33v8H82.15v-8a2.81,2.81,0,0,0-.6-1.94,2.38,2.38,0,0,0-1.83-.62,3,3,0,0,0-1.76.53,3.63,3.63,0,0,0-1.19,1.41v8.63H74.7V134Z"/><path class="cls-2" d="M86.84,140a7.1,7.1,0,0,1,1.32-4.48,4.5,4.5,0,0,1,6.82-.24V129h2.07v17.18h-1.9l-.1-1.3a4.23,4.23,0,0,1-3.46,1.52,4.14,4.14,0,0,1-3.43-1.72,7.2,7.2,0,0,1-1.32-4.5Zm2.07.24a5.35,5.35,0,0,0,.85,3.22,2.73,2.73,0,0,0,2.35,1.16A3,3,0,0,0,95,142.84v-5.56a3,3,0,0,0-2.85-1.71,2.75,2.75,0,0,0-2.37,1.17A5.88,5.88,0,0,0,88.91,140.22Z"/><path class="cls-2" d="M105.38,140a7.26,7.26,0,0,1,.7-3.2,5.15,5.15,0,0,1,4.79-3,5.11,5.11,0,0,1,4,1.71,6.57,6.57,0,0,1,1.53,4.55v.15a7.23,7.23,0,0,1-.68,3.17,5.14,5.14,0,0,1-1.93,2.19,5.39,5.39,0,0,1-2.89.78,5.1,5.1,0,0,1-4-1.71,6.54,6.54,0,0,1-1.53-4.53Zm2.08.25a5.12,5.12,0,0,0,.94,3.23,3,3,0,0,0,2.5,1.22,3,3,0,0,0,2.5-1.24,5.63,5.63,0,0,0,.93-3.46,5.16,5.16,0,0,0-1-3.22,3.14,3.14,0,0,0-5,0A5.66,5.66,0,0,0,107.46,140.22Z"/><path class="cls-2" d="M126,142.93a1.54,1.54,0,0,0-.63-1.31,6.22,6.22,0,0,0-2.2-.8,10.51,10.51,0,0,1-2.5-.8,3.62,3.62,0,0,1-1.36-1.12,2.64,2.64,0,0,1-.45-1.54,3.14,3.14,0,0,1,1.26-2.52,4.9,4.9,0,0,1,3.22-1,5.07,5.07,0,0,1,3.34,1.06,3.4,3.4,0,0,1,1.28,2.72h-2.08a1.85,1.85,0,0,0-.72-1.46,2.73,2.73,0,0,0-1.82-.62,2.82,2.82,0,0,0-1.77.49,1.57,1.57,0,0,0-.64,1.29,1.25,1.25,0,0,0,.6,1.13,7.49,7.49,0,0,0,2.14.73,11.18,11.18,0,0,1,2.51.82,3.7,3.7,0,0,1,1.43,1.16,2.91,2.91,0,0,1,.46,1.65,3.08,3.08,0,0,1-1.3,2.6,5.45,5.45,0,0,1-3.36,1,6,6,0,0,1-2.58-.52,4.21,4.21,0,0,1-1.75-1.43,3.48,3.48,0,0,1-.63-2h2.07a2.15,2.15,0,0,0,.83,1.65,3.22,3.22,0,0,0,2.06.61,3.38,3.38,0,0,0,1.88-.47A1.47,1.47,0,0,0,126,142.93Z"/><path class="cls-2" d="M141.5,146.36a5.3,5.3,0,0,1-4-1.62,6,6,0,0,1-1.54-4.32V140a7.28,7.28,0,0,1,.69-3.22,5.38,5.38,0,0,1,1.92-2.21,4.89,4.89,0,0,1,2.68-.8,4.55,4.55,0,0,1,3.67,1.55,6.78,6.78,0,0,1,1.31,4.46v.86H138a4.31,4.31,0,0,0,1,2.89,3.28,3.28,0,0,0,2.54,1.1,3.61,3.61,0,0,0,1.86-.45A4.79,4.79,0,0,0,144.8,143l1.26,1A5.07,5.07,0,0,1,141.5,146.36Zm-.26-10.85a2.76,2.76,0,0,0-2.1.91,4.39,4.39,0,0,0-1,2.56h6.06v-.16a3.92,3.92,0,0,0-.85-2.44A2.6,2.6,0,0,0,141.24,135.51Z"/><path class="cls-2" d="M150.57,134l.06,1.52a4.43,4.43,0,0,1,3.63-1.74q3.84,0,3.87,4.33v8h-2.07v-8a2.81,2.81,0,0,0-.6-1.94,2.38,2.38,0,0,0-1.83-.62,3,3,0,0,0-1.76.53,3.63,3.63,0,0,0-1.19,1.41v8.63h-2.07V134Z"/><path class="cls-2" d="M168.87,134l0,1.35a4.47,4.47,0,0,1,3.59-1.57,3.46,3.46,0,0,1,3.46,1.95,4.54,4.54,0,0,1,1.57-1.41,4.64,4.64,0,0,1,2.29-.54q4,0,4,4.22v8.11h-2.07v-8a2.75,2.75,0,0,0-.6-1.94,2.58,2.58,0,0,0-2-.64,2.66,2.66,0,0,0-2.79,2.53v8h-2.08v-7.93a2.31,2.31,0,0,0-2.59-2.64A2.76,2.76,0,0,0,169,137.3v8.84h-2.07V134Z"/><path class="cls-2" d="M194.47,146.14a4.25,4.25,0,0,1-.29-1.28,4.61,4.61,0,0,1-3.45,1.5,4.28,4.28,0,0,1-2.93-1,3.27,3.27,0,0,1-1.15-2.57,3.43,3.43,0,0,1,1.44-2.94,6.82,6.82,0,0,1,4-1h2v-1a2.32,2.32,0,0,0-.64-1.73,2.62,2.62,0,0,0-1.92-.64,3,3,0,0,0-1.85.56,1.64,1.64,0,0,0-.75,1.35H186.9a2.84,2.84,0,0,1,.64-1.75,4.43,4.43,0,0,1,1.75-1.34,5.82,5.82,0,0,1,2.42-.49,4.76,4.76,0,0,1,3.27,1.05,3.75,3.75,0,0,1,1.23,2.88v5.57a6.88,6.88,0,0,0,.43,2.65v.18ZM191,144.56a3.69,3.69,0,0,0,1.84-.5,3.1,3.1,0,0,0,1.26-1.31v-2.49h-1.62c-2.53,0-3.8.75-3.8,2.23a1.88,1.88,0,0,0,.65,1.52A2.47,2.47,0,0,0,191,144.56Z"/><path class="cls-2" d="M199.47,130.82a1.24,1.24,0,0,1,.31-.85,1.39,1.39,0,0,1,1.82,0,1.25,1.25,0,0,1,.32.85,1.17,1.17,0,0,1-.32.84,1.39,1.39,0,0,1-1.82,0A1.16,1.16,0,0,1,199.47,130.82Zm2.24,15.32h-2.07V134h2.07Z"/><path class="cls-2" d="M207.26,146.14H205.2V129h2.06Z"/></g><g class="cls-1"><path class="cls-2" d="M23,162.67l.06,1.34a4.48,4.48,0,0,1,3.59-1.57,3.45,3.45,0,0,1,3.45,1.95A4.67,4.67,0,0,1,31.69,163a4.58,4.58,0,0,1,2.28-.54q4,0,4.05,4.22v8.11H36v-8a2.81,2.81,0,0,0-.59-1.94,2.61,2.61,0,0,0-2-.64,2.72,2.72,0,0,0-1.91.69,2.81,2.81,0,0,0-.89,1.85v8H28.49v-7.93a2.31,2.31,0,0,0-2.58-2.64,2.78,2.78,0,0,0-2.79,1.73v8.84H21.05v-12.1Z"/><path class="cls-2" d="M46.17,175a5.31,5.31,0,0,1-4-1.61,6,6,0,0,1-1.54-4.33v-.38a7.21,7.21,0,0,1,.69-3.21,5.4,5.4,0,0,1,1.92-2.22,4.86,4.86,0,0,1,2.68-.8A4.54,4.54,0,0,1,49.58,164a6.75,6.75,0,0,1,1.3,4.45v.86H42.69a4.28,4.28,0,0,0,1,2.89,3.28,3.28,0,0,0,2.55,1.1,3.55,3.55,0,0,0,1.85-.44,4.69,4.69,0,0,0,1.33-1.19l1.27,1A5.1,5.1,0,0,1,46.17,175Zm-.26-10.85a2.77,2.77,0,0,0-2.11.92,4.49,4.49,0,0,0-1,2.55h6.07v-.16A4,4,0,0,0,48,165,2.61,2.61,0,0,0,45.91,164.14Z"/><path class="cls-2" d="M52.77,168.62a7.08,7.08,0,0,1,1.32-4.48,4.49,4.49,0,0,1,6.83-.24v-6.31H63v17.18H61.08l-.1-1.3A4.18,4.18,0,0,1,57.53,175a4.13,4.13,0,0,1-3.43-1.72,7.21,7.21,0,0,1-1.33-4.5Zm2.07.23a5.4,5.4,0,0,0,.85,3.22A2.75,2.75,0,0,0,58,173.24a3,3,0,0,0,2.88-1.77v-5.56a3,3,0,0,0-2.86-1.71,2.77,2.77,0,0,0-2.37,1.17A6,6,0,0,0,54.84,168.85Z"/><path class="cls-2" d="M71.36,168.62a7.08,7.08,0,0,1,1.32-4.48,4.49,4.49,0,0,1,6.83-.24v-6.31h2.07v17.18H79.67l-.1-1.3A4.18,4.18,0,0,1,76.12,175a4.13,4.13,0,0,1-3.43-1.72,7.21,7.21,0,0,1-1.33-4.5Zm2.07.23a5.4,5.4,0,0,0,.85,3.22,2.75,2.75,0,0,0,2.35,1.17,3,3,0,0,0,2.88-1.77v-5.56a3,3,0,0,0-2.86-1.71,2.77,2.77,0,0,0-2.37,1.17A6,6,0,0,0,73.43,168.85Z"/><path class="cls-2" d="M84.8,159.46a1.24,1.24,0,0,1,.3-.85,1.37,1.37,0,0,1,1.83,0,1.28,1.28,0,0,1,0,1.69,1.43,1.43,0,0,1-1.83,0A1.24,1.24,0,0,1,84.8,159.46ZM87,174.77H85v-12.1H87Z"/><path class="cls-2" d="M92.3,162.67l.07,1.52A4.41,4.41,0,0,1,96,162.44c2.56,0,3.85,1.45,3.87,4.33v8H97.79v-8a2.73,2.73,0,0,0-.59-1.93,2.42,2.42,0,0,0-1.83-.63,3,3,0,0,0-1.77.54,3.57,3.57,0,0,0-1.19,1.41v8.62H90.34v-12.1Z"/><path class="cls-2" d="M108,175a5.3,5.3,0,0,1-4-1.61,6,6,0,0,1-1.54-4.33v-.38a7.21,7.21,0,0,1,.69-3.21,5.4,5.4,0,0,1,1.92-2.22,4.86,4.86,0,0,1,2.68-.8,4.54,4.54,0,0,1,3.67,1.56,6.75,6.75,0,0,1,1.3,4.45v.86h-8.19a4.28,4.28,0,0,0,1,2.89,3.28,3.28,0,0,0,2.55,1.1,3.55,3.55,0,0,0,1.85-.44,4.69,4.69,0,0,0,1.33-1.19l1.27,1A5.11,5.11,0,0,1,108,175Zm-.25-10.85a2.77,2.77,0,0,0-2.11.92,4.49,4.49,0,0,0-1,2.55h6.07v-.16a4,4,0,0,0-.85-2.44A2.61,2.61,0,0,0,107.75,164.14Z"/><path class="cls-2" d="M120.24,168.61a7.07,7.07,0,0,1,.7-3.2,5.14,5.14,0,0,1,2-2.19,5.24,5.24,0,0,1,2.84-.78,5.08,5.08,0,0,1,4,1.72,6.56,6.56,0,0,1,1.53,4.55v.14a7.2,7.2,0,0,1-.68,3.17,5.09,5.09,0,0,1-1.93,2.19,5.39,5.39,0,0,1-2.89.78,5.1,5.1,0,0,1-4-1.71,6.54,6.54,0,0,1-1.53-4.53Zm2.08.24a5.12,5.12,0,0,0,.94,3.23,3.16,3.16,0,0,0,5,0,5.67,5.67,0,0,0,.93-3.46,5.17,5.17,0,0,0-.95-3.23,3.14,3.14,0,0,0-5,0A5.62,5.62,0,0,0,122.32,168.85Z"/><path class="cls-2" d="M144.08,168.85a7.25,7.25,0,0,1-1.27,4.45,4,4,0,0,1-3.42,1.69,4.44,4.44,0,0,1-3.47-1.39v5.82h-2.07V162.67h1.89l.1,1.34a4.3,4.3,0,0,1,3.52-1.57,4.13,4.13,0,0,1,3.45,1.65,7.35,7.35,0,0,1,1.27,4.57Zm-2.07-.23a5.27,5.27,0,0,0-.88-3.23,2.81,2.81,0,0,0-2.39-1.19,3.06,3.06,0,0,0-2.82,1.67v5.78a3.05,3.05,0,0,0,2.84,1.65,2.8,2.8,0,0,0,2.37-1.18A5.84,5.84,0,0,0,142,168.62Z"/><path class="cls-2" d="M149,174.77h-2.07V157.59H149Z"/><path class="cls-2" d="M156.22,171.74l2.82-9.07h2.22l-4.87,14q-1.12,3-3.59,3l-.39,0-.77-.14V177.8l.56,0a2.75,2.75,0,0,0,1.63-.43,3,3,0,0,0,1-1.55l.46-1.23-4.32-12h2.26Z"/><path class="cls-2" d="M170.15,171.56a1.52,1.52,0,0,0-.63-1.3,6.09,6.09,0,0,0-2.21-.8,10.84,10.84,0,0,1-2.49-.81,3.48,3.48,0,0,1-1.37-1.12A2.68,2.68,0,0,1,163,166a3.15,3.15,0,0,1,1.26-2.52,5,5,0,0,1,3.22-1,5.07,5.07,0,0,1,3.34,1.07,3.36,3.36,0,0,1,1.28,2.71H170a1.85,1.85,0,0,0-.73-1.46,2.69,2.69,0,0,0-1.81-.62,2.8,2.8,0,0,0-1.77.5,1.52,1.52,0,0,0-.64,1.28,1.26,1.26,0,0,0,.59,1.13,7.1,7.1,0,0,0,2.15.73,11.14,11.14,0,0,1,2.51.83,3.65,3.65,0,0,1,1.42,1.15,2.88,2.88,0,0,1,.47,1.65,3.07,3.07,0,0,1-1.3,2.6,5.41,5.41,0,0,1-3.37,1,6.14,6.14,0,0,1-2.57-.51,4.16,4.16,0,0,1-1.75-1.44,3.46,3.46,0,0,1-.63-2h2.07a2.12,2.12,0,0,0,.83,1.65,3.21,3.21,0,0,0,2.05.61,3.33,3.33,0,0,0,1.89-.47A1.47,1.47,0,0,0,170.15,171.56Z"/><path class="cls-2" d="M176.87,162.67l.07,1.52a4.41,4.41,0,0,1,3.62-1.75c2.56,0,3.85,1.45,3.87,4.33v8h-2.07v-8a2.78,2.78,0,0,0-.6-1.93,2.39,2.39,0,0,0-1.83-.63,2.94,2.94,0,0,0-1.76.54,3.49,3.49,0,0,0-1.19,1.41v8.62h-2.07v-12.1Z"/><path class="cls-2" d="M187.56,159.46a1.25,1.25,0,0,1,.31-.85,1.17,1.17,0,0,1,.91-.35,1.19,1.19,0,0,1,.92.35,1.31,1.31,0,0,1,0,1.69,1.22,1.22,0,0,1-.92.33,1.19,1.19,0,0,1-.91-.33A1.24,1.24,0,0,1,187.56,159.46Zm2.24,15.31h-2.07v-12.1h2.07Z"/><path class="cls-2" d="M195.07,162.67l.06,1.52a4.44,4.44,0,0,1,3.63-1.75c2.56,0,3.85,1.45,3.87,4.33v8h-2.07v-8a2.78,2.78,0,0,0-.6-1.93,2.39,2.39,0,0,0-1.83-.63,2.94,2.94,0,0,0-1.76.54,3.49,3.49,0,0,0-1.19,1.41v8.62h-2.07v-12.1Z"/><path class="cls-2" d="M205.26,168.62a7,7,0,0,1,1.31-4.5,4.5,4.5,0,0,1,6.92-.11l.1-1.34h1.89v11.81a4.92,4.92,0,0,1-1.39,3.7,5.16,5.16,0,0,1-3.74,1.35,6.21,6.21,0,0,1-2.56-.55,4.46,4.46,0,0,1-1.92-1.54L207,176.2a4,4,0,0,0,3.25,1.65,3.22,3.22,0,0,0,2.36-.85,3.28,3.28,0,0,0,.84-2.4v-1A4.24,4.24,0,0,1,210,175a4.14,4.14,0,0,1-3.44-1.71A7.5,7.5,0,0,1,205.26,168.62Zm2.08.23a5.43,5.43,0,0,0,.84,3.22,2.72,2.72,0,0,0,2.35,1.17,3,3,0,0,0,2.87-1.78v-5.53a3.06,3.06,0,0,0-2.85-1.73,2.74,2.74,0,0,0-2.36,1.17A5.92,5.92,0,0,0,207.34,168.85Z"/><path class="cls-2" d="M223.62,175a5.3,5.3,0,0,1-4-1.61,6,6,0,0,1-1.54-4.33v-.38a7.21,7.21,0,0,1,.68-3.21,5.43,5.43,0,0,1,1.93-2.22,4.84,4.84,0,0,1,2.68-.8A4.51,4.51,0,0,1,227,164a6.69,6.69,0,0,1,1.31,4.45v.86h-8.2a4.29,4.29,0,0,0,1.05,2.89,3.27,3.27,0,0,0,2.54,1.1,3.58,3.58,0,0,0,1.86-.44,4.69,4.69,0,0,0,1.33-1.19l1.27,1A5.11,5.11,0,0,1,223.62,175Zm-.25-10.85a2.77,2.77,0,0,0-2.11.92,4.49,4.49,0,0,0-1,2.55h6.06v-.16a3.92,3.92,0,0,0-.85-2.44A2.57,2.57,0,0,0,223.37,164.14Z"/><path class="cls-2" d="M236.58,164.52a6.41,6.41,0,0,0-1-.07,2.73,2.73,0,0,0-2.77,1.73v8.59h-2.06v-12.1h2l0,1.4a3.22,3.22,0,0,1,2.89-1.63,2.12,2.12,0,0,1,.91.16Z"/></g></g><g id="Vælg_din_pris_og_medlemskab" data-name="Vælg din pris og medlemskab" class="cls-1"><g class="cls-1"><path class="cls-2" d="M311,143.28l4.66-13.43H318l-6,16.29h-1.9l-6-16.29h2.34Z"/><path class="cls-2" d="M332.43,146.36a5.21,5.21,0,0,1-4.44-2,4.66,4.66,0,0,1-2,1.48,7.33,7.33,0,0,1-2.84.53,4.12,4.12,0,0,1-2.92-1,3.42,3.42,0,0,1-1.05-2.65,3.22,3.22,0,0,1,1.27-2.73,6,6,0,0,1,3.74-1h2.49v-.95a2.71,2.71,0,0,0-.61-1.88,2.26,2.26,0,0,0-1.78-.69,3.08,3.08,0,0,0-2,.62,1.86,1.86,0,0,0-.78,1.52l-2.06-.22a3.14,3.14,0,0,1,1.35-2.61,5.67,5.67,0,0,1,3.45-1,5.26,5.26,0,0,1,2.27.46,3.48,3.48,0,0,1,1.54,1.4,4.91,4.91,0,0,1,1.68-1.37,5.19,5.19,0,0,1,5.79.95,5.79,5.79,0,0,1,1.3,4v1.29h-8.14a4.6,4.6,0,0,0,1.05,3,3.37,3.37,0,0,0,2.64,1.07,5.52,5.52,0,0,0,3-.85l.52-.35.72,1.53A6.79,6.79,0,0,1,332.43,146.36Zm-8.87-1.68a4.06,4.06,0,0,0,1.69-.41,4.64,4.64,0,0,0,1.44-1V140.6h-2.55a3.36,3.36,0,0,0-2.09.64,1.88,1.88,0,0,0-.78,1.54,1.77,1.77,0,0,0,.59,1.38A2.49,2.49,0,0,0,323.56,144.68Zm8.38-9.17a2.67,2.67,0,0,0-2.12,1,4.44,4.44,0,0,0-1,2.51h6v-.35a3.3,3.3,0,0,0-.75-2.3A2.71,2.71,0,0,0,331.94,135.51Z"/><path class="cls-2" d="M341.47,146.14H339.4V129h2.07Z"/><path class="cls-2" d="M344.29,140a7.14,7.14,0,0,1,1.3-4.5,4.21,4.21,0,0,1,3.47-1.67,4.16,4.16,0,0,1,3.46,1.57l.1-1.35h1.89v11.81a5,5,0,0,1-1.39,3.71,5.16,5.16,0,0,1-3.74,1.35,6.3,6.3,0,0,1-2.57-.56,4.4,4.4,0,0,1-1.91-1.53l1.07-1.24a4.08,4.08,0,0,0,3.26,1.64,3.14,3.14,0,0,0,2.35-.85,3.22,3.22,0,0,0,.85-2.39v-1a4.27,4.27,0,0,1-3.39,1.43,4.14,4.14,0,0,1-3.44-1.71A7.47,7.47,0,0,1,344.29,140Zm2.08.24a5.39,5.39,0,0,0,.84,3.21,2.71,2.71,0,0,0,2.34,1.17,3,3,0,0,0,2.88-1.77V137.3a3.07,3.07,0,0,0-2.85-1.73,2.74,2.74,0,0,0-2.36,1.17A5.88,5.88,0,0,0,346.37,140.22Z"/><path class="cls-2" d="M362.8,140a7.1,7.1,0,0,1,1.32-4.48,4.5,4.5,0,0,1,6.82-.24V129H373v17.18h-1.9l-.1-1.3a4.23,4.23,0,0,1-3.46,1.52,4.14,4.14,0,0,1-3.43-1.72,7.2,7.2,0,0,1-1.32-4.5Zm2.07.24a5.35,5.35,0,0,0,.85,3.22,2.73,2.73,0,0,0,2.35,1.16,3,3,0,0,0,2.87-1.76v-5.56a3,3,0,0,0-2.85-1.71,2.75,2.75,0,0,0-2.37,1.17A5.88,5.88,0,0,0,364.87,140.22Z"/><path class="cls-2" d="M376.23,130.82a1.24,1.24,0,0,1,.31-.85,1.15,1.15,0,0,1,.91-.34,1.19,1.19,0,0,1,.92.34,1.29,1.29,0,0,1,.31.85,1.21,1.21,0,0,1-.31.84,1.19,1.19,0,0,1-.92.34,1.15,1.15,0,0,1-.91-.34A1.16,1.16,0,0,1,376.23,130.82Zm2.24,15.32H376.4V134h2.07Z"/><path class="cls-2" d="M383.74,134l.06,1.52a4.42,4.42,0,0,1,3.63-1.74q3.82,0,3.87,4.33v8h-2.07v-8a2.81,2.81,0,0,0-.6-1.94,2.38,2.38,0,0,0-1.83-.62,3.06,3.06,0,0,0-1.77.53,3.69,3.69,0,0,0-1.18,1.41v8.63h-2.07V134Z"/><path class="cls-2" d="M410.31,140.22a7.27,7.27,0,0,1-1.26,4.45,4.06,4.06,0,0,1-3.43,1.69,4.43,4.43,0,0,1-3.46-1.4v5.83h-2.07V134H402l.1,1.35a4.24,4.24,0,0,1,3.51-1.57,4.15,4.15,0,0,1,3.45,1.64,7.33,7.33,0,0,1,1.27,4.58Zm-2.07-.24a5.36,5.36,0,0,0-.87-3.23,2.8,2.8,0,0,0-2.39-1.18,3,3,0,0,0-2.82,1.66V143a3,3,0,0,0,2.84,1.65,2.77,2.77,0,0,0,2.36-1.18A5.8,5.8,0,0,0,408.24,140Z"/><path class="cls-2" d="M418.79,135.89a6.59,6.59,0,0,0-1-.08,2.72,2.72,0,0,0-2.76,1.74v8.59h-2.07V134h2l0,1.4a3.23,3.23,0,0,1,2.89-1.62,2.05,2.05,0,0,1,.92.16Z"/><path class="cls-2" d="M420.7,130.82A1.24,1.24,0,0,1,421,130a1.15,1.15,0,0,1,.91-.34,1.19,1.19,0,0,1,.92.34,1.24,1.24,0,0,1,.31.85,1.16,1.16,0,0,1-.31.84,1.19,1.19,0,0,1-.92.34,1.15,1.15,0,0,1-.91-.34A1.16,1.16,0,0,1,420.7,130.82Zm2.24,15.32h-2.07V134h2.07Z"/><path class="cls-2" d="M433.29,142.93a1.54,1.54,0,0,0-.63-1.31,6.14,6.14,0,0,0-2.2-.8A10.26,10.26,0,0,1,428,140a3.66,3.66,0,0,1-1.37-1.12,2.71,2.71,0,0,1-.44-1.54,3.14,3.14,0,0,1,1.26-2.52,4.89,4.89,0,0,1,3.21-1,5,5,0,0,1,3.34,1.06,3.37,3.37,0,0,1,1.28,2.72h-2.08a1.85,1.85,0,0,0-.72-1.46,2.71,2.71,0,0,0-1.82-.62,2.79,2.79,0,0,0-1.76.49,1.55,1.55,0,0,0-.64,1.29,1.26,1.26,0,0,0,.59,1.13,7.74,7.74,0,0,0,2.14.73,11,11,0,0,1,2.51.82,3.63,3.63,0,0,1,1.43,1.16,2.84,2.84,0,0,1,.46,1.65,3.1,3.1,0,0,1-1.29,2.6,5.48,5.48,0,0,1-3.37,1,6,6,0,0,1-2.57-.52,4.15,4.15,0,0,1-1.75-1.43,3.48,3.48,0,0,1-.63-2h2.06a2.16,2.16,0,0,0,.84,1.65,3.21,3.21,0,0,0,2.05.61,3.38,3.38,0,0,0,1.88-.47A1.45,1.45,0,0,0,433.29,142.93Z"/><path class="cls-2" d="M443.18,140a7.26,7.26,0,0,1,.7-3.2,5.15,5.15,0,0,1,4.79-3,5.11,5.11,0,0,1,4,1.71,6.57,6.57,0,0,1,1.53,4.55v.15a7.23,7.23,0,0,1-.68,3.17,5.14,5.14,0,0,1-1.93,2.19,5.39,5.39,0,0,1-2.89.78,5.1,5.1,0,0,1-4-1.71,6.54,6.54,0,0,1-1.53-4.53Zm2.08.25a5.12,5.12,0,0,0,.94,3.23,3,3,0,0,0,2.5,1.22,3,3,0,0,0,2.5-1.24,5.63,5.63,0,0,0,.93-3.46,5.16,5.16,0,0,0-.95-3.22,3.14,3.14,0,0,0-5,0A5.66,5.66,0,0,0,445.26,140.22Z"/><path class="cls-2" d="M456.3,140a7.14,7.14,0,0,1,1.31-4.5,4.2,4.2,0,0,1,3.47-1.67,4.14,4.14,0,0,1,3.45,1.57l.1-1.35h1.9v11.81a4.93,4.93,0,0,1-1.4,3.71,5.14,5.14,0,0,1-3.74,1.35,6.29,6.29,0,0,1-2.56-.56,4.4,4.4,0,0,1-1.91-1.53l1.07-1.24a4.06,4.06,0,0,0,3.26,1.64,3.15,3.15,0,0,0,2.35-.85,3.25,3.25,0,0,0,.84-2.39v-1a4.24,4.24,0,0,1-3.38,1.43,4.12,4.12,0,0,1-3.44-1.71A7.47,7.47,0,0,1,456.3,140Zm2.08.24a5.39,5.39,0,0,0,.84,3.21,2.72,2.72,0,0,0,2.35,1.17,3,3,0,0,0,2.87-1.77V137.3a3,3,0,0,0-2.85-1.73,2.77,2.77,0,0,0-2.36,1.17A6,6,0,0,0,458.38,140.22Z"/></g><g class="cls-1"><path class="cls-2" d="M323.6,162.67l.06,1.34a4.5,4.5,0,0,1,3.59-1.57,3.47,3.47,0,0,1,3.46,1.95,4.55,4.55,0,0,1,1.57-1.41,4.62,4.62,0,0,1,2.29-.54q4,0,4.05,4.22v8.11h-2.07v-8a2.77,2.77,0,0,0-.6-1.94,2.6,2.6,0,0,0-2-.64,2.68,2.68,0,0,0-2.79,2.54v8h-2.09v-7.93a2.31,2.31,0,0,0-2.58-2.64,2.76,2.76,0,0,0-2.78,1.73v8.84h-2.07v-12.1Z"/><path class="cls-2" d="M346.76,175a5.33,5.33,0,0,1-4-1.61,6,6,0,0,1-1.54-4.33v-.38a7.21,7.21,0,0,1,.69-3.21,5.48,5.48,0,0,1,1.92-2.22,4.89,4.89,0,0,1,2.68-.8,4.53,4.53,0,0,1,3.67,1.56,6.75,6.75,0,0,1,1.31,4.45v.86h-8.2a4.29,4.29,0,0,0,1.05,2.89,3.25,3.25,0,0,0,2.54,1.1,3.61,3.61,0,0,0,1.86-.44,4.83,4.83,0,0,0,1.33-1.19l1.26,1A5.08,5.08,0,0,1,346.76,175Zm-.26-10.85a2.75,2.75,0,0,0-2.1.92,4.36,4.36,0,0,0-1,2.55h6.06v-.16a3.92,3.92,0,0,0-.85-2.44A2.6,2.6,0,0,0,346.5,164.14Z"/><path class="cls-2" d="M353.37,168.62a7.08,7.08,0,0,1,1.32-4.48,4.48,4.48,0,0,1,6.82-.24v-6.31h2.07v17.18h-1.9l-.1-1.3a4.2,4.2,0,0,1-3.46,1.52,4.14,4.14,0,0,1-3.43-1.72,7.2,7.2,0,0,1-1.32-4.5Zm2.07.23a5.33,5.33,0,0,0,.85,3.22,2.74,2.74,0,0,0,2.35,1.17,3,3,0,0,0,2.87-1.77v-5.56a3,3,0,0,0-2.85-1.71,2.75,2.75,0,0,0-2.37,1.17A5.92,5.92,0,0,0,355.44,168.85Z"/><path class="cls-2" d="M369,174.77H367V157.59H369Z"/><path class="cls-2" d="M377.37,175a5.29,5.29,0,0,1-4-1.61,6,6,0,0,1-1.55-4.33v-.38a7.21,7.21,0,0,1,.69-3.21,5.48,5.48,0,0,1,1.92-2.22,4.89,4.89,0,0,1,2.68-.8,4.52,4.52,0,0,1,3.67,1.56,6.75,6.75,0,0,1,1.31,4.45v.86h-8.2a4.29,4.29,0,0,0,1.05,2.89,3.25,3.25,0,0,0,2.54,1.1,3.61,3.61,0,0,0,1.86-.44,4.69,4.69,0,0,0,1.33-1.19l1.26,1A5.08,5.08,0,0,1,377.37,175Zm-.26-10.85a2.77,2.77,0,0,0-2.1.92,4.36,4.36,0,0,0-1.05,2.55H380v-.16a3.92,3.92,0,0,0-.85-2.44A2.6,2.6,0,0,0,377.11,164.14Z"/><path class="cls-2" d="M386.43,162.67l.06,1.34a4.47,4.47,0,0,1,3.59-1.57,3.45,3.45,0,0,1,3.45,1.95,4.51,4.51,0,0,1,3.86-1.95q4,0,4.05,4.22v8.11h-2.07v-8a2.81,2.81,0,0,0-.59-1.94,2.61,2.61,0,0,0-2-.64,2.72,2.72,0,0,0-1.91.69,2.76,2.76,0,0,0-.89,1.85v8h-2.08v-7.93a2.31,2.31,0,0,0-2.58-2.64,2.78,2.78,0,0,0-2.79,1.73v8.84h-2.07v-12.1Z"/><path class="cls-2" d="M411.61,171.56a1.5,1.5,0,0,0-.64-1.3,6,6,0,0,0-2.2-.8,10.67,10.67,0,0,1-2.49-.81,3.48,3.48,0,0,1-1.37-1.12,2.68,2.68,0,0,1-.44-1.54,3.15,3.15,0,0,1,1.26-2.52,4.94,4.94,0,0,1,3.21-1,5,5,0,0,1,3.34,1.07,3.33,3.33,0,0,1,1.28,2.71h-2.08a1.87,1.87,0,0,0-.72-1.46,2.71,2.71,0,0,0-1.82-.62,2.79,2.79,0,0,0-1.76.5,1.52,1.52,0,0,0-.64,1.28,1.26,1.26,0,0,0,.59,1.13,7.12,7.12,0,0,0,2.14.73,11.24,11.24,0,0,1,2.52.83,3.65,3.65,0,0,1,1.42,1.15,2.88,2.88,0,0,1,.47,1.65,3.1,3.1,0,0,1-1.3,2.6,5.41,5.41,0,0,1-3.37,1,6.11,6.11,0,0,1-2.57-.51,4.1,4.1,0,0,1-1.75-1.44,3.46,3.46,0,0,1-.63-2h2.07a2.09,2.09,0,0,0,.83,1.65,3.21,3.21,0,0,0,2.05.61,3.35,3.35,0,0,0,1.89-.47A1.47,1.47,0,0,0,411.61,171.56Z"/><path class="cls-2" d="M419.75,169.17l-1.3,1.35v4.25h-2.07V157.59h2.07V168l1.11-1.33,3.77-4h2.51l-4.7,5.05,5.25,7.05H424Z"/><path class="cls-2" d="M435.45,174.77a4.49,4.49,0,0,1-.29-1.28,4.61,4.61,0,0,1-3.44,1.5,4.24,4.24,0,0,1-2.94-1,3.29,3.29,0,0,1-1.15-2.57,3.41,3.41,0,0,1,1.44-2.93,6.76,6.76,0,0,1,4-1h2v-1a2.35,2.35,0,0,0-.65-1.73,2.59,2.59,0,0,0-1.91-.64,3,3,0,0,0-1.86.56A1.64,1.64,0,0,0,430,166h-2.08a2.87,2.87,0,0,1,.64-1.75,4.32,4.32,0,0,1,1.75-1.33,5.82,5.82,0,0,1,2.42-.5,4.79,4.79,0,0,1,3.28,1.05,3.78,3.78,0,0,1,1.23,2.88v5.57a6.9,6.9,0,0,0,.42,2.65v.18ZM432,173.19a3.66,3.66,0,0,0,1.84-.5,3,3,0,0,0,1.27-1.31V168.9h-1.62q-3.81,0-3.81,2.22a1.88,1.88,0,0,0,.65,1.52A2.47,2.47,0,0,0,432,173.19Z"/><path class="cls-2" d="M450.69,168.85a7.2,7.2,0,0,1-1.28,4.46A4.07,4.07,0,0,1,446,175a4.23,4.23,0,0,1-3.55-1.62l-.1,1.4h-1.9V157.59h2.07V164a4.19,4.19,0,0,1,3.46-1.56,4.11,4.11,0,0,1,3.46,1.67,7.39,7.39,0,0,1,1.26,4.56Zm-2.07-.23a5.64,5.64,0,0,0-.82-3.27,2.7,2.7,0,0,0-2.35-1.15,3,3,0,0,0-2.94,1.9v5.24a3.13,3.13,0,0,0,3,1.9,2.69,2.69,0,0,0,2.32-1.16A5.92,5.92,0,0,0,448.62,168.62Z"/></g></g><g id="Hop_i_træningstøjet_og_start" data-name="Hop i træningstøjet og start" class="cls-1"><g class="cls-1"><path class="cls-2" d="M560.66,146.14H558.5v-7.53h-8.21v7.53h-2.15V129.85h2.15v7h8.21v-7h2.16Z"/><path class="cls-2" d="M563.6,140a7.13,7.13,0,0,1,.7-3.2,5.15,5.15,0,0,1,4.79-3,5.11,5.11,0,0,1,4,1.71,6.57,6.57,0,0,1,1.53,4.55v.15a7.23,7.23,0,0,1-.68,3.17,5.14,5.14,0,0,1-1.93,2.19,5.39,5.39,0,0,1-2.89.78,5.1,5.1,0,0,1-4-1.71,6.54,6.54,0,0,1-1.53-4.53Zm2.08.25a5.12,5.12,0,0,0,.94,3.23,3,3,0,0,0,2.5,1.22,3,3,0,0,0,2.5-1.24,5.63,5.63,0,0,0,.93-3.46,5.16,5.16,0,0,0-.95-3.22,3.14,3.14,0,0,0-5,0A5.66,5.66,0,0,0,565.68,140.22Z"/><path class="cls-2" d="M587.44,140.22a7.27,7.27,0,0,1-1.27,4.45,4,4,0,0,1-3.42,1.69,4.45,4.45,0,0,1-3.47-1.4v5.83h-2.07V134h1.89l.1,1.35a4.27,4.27,0,0,1,3.52-1.57,4.15,4.15,0,0,1,3.45,1.64,7.4,7.4,0,0,1,1.27,4.58Zm-2.07-.24a5.36,5.36,0,0,0-.87-3.23,2.82,2.82,0,0,0-2.4-1.18,3,3,0,0,0-2.82,1.66V143a3.05,3.05,0,0,0,2.84,1.65,2.79,2.79,0,0,0,2.37-1.18A5.87,5.87,0,0,0,585.37,140Z"/><path class="cls-2" d="M595.75,130.82a1.28,1.28,0,0,1,.3-.85,1.4,1.4,0,0,1,1.83,0,1.25,1.25,0,0,1,.32.85,1.28,1.28,0,0,1-2.15.84A1.2,1.2,0,0,1,595.75,130.82ZM598,146.14h-2.06V134H598Z"/><path class="cls-2" d="M609.77,131.1V134H612v1.6h-2.26v7.52a1.69,1.69,0,0,0,.3,1.09,1.3,1.3,0,0,0,1,.36,5,5,0,0,0,1-.13v1.67a6,6,0,0,1-1.59.22,2.58,2.58,0,0,1-2.09-.84,3.6,3.6,0,0,1-.71-2.38v-7.51h-2.2V134h2.2V131.1Z"/><path class="cls-2" d="M620.3,135.89a6.59,6.59,0,0,0-1-.08,2.72,2.72,0,0,0-2.76,1.74v8.59h-2.07V134h2l0,1.4a3.23,3.23,0,0,1,2.89-1.62,2.05,2.05,0,0,1,.92.16Z"/><path class="cls-2" d="M634.75,146.36a5.21,5.21,0,0,1-4.44-2,4.72,4.72,0,0,1-2,1.48,7.37,7.37,0,0,1-2.84.53,4.12,4.12,0,0,1-2.92-1,3.43,3.43,0,0,1-1.06-2.65,3.25,3.25,0,0,1,1.27-2.73,6.1,6.1,0,0,1,3.75-1H629v-.95a2.76,2.76,0,0,0-.61-1.88,2.27,2.27,0,0,0-1.78-.69,3.06,3.06,0,0,0-2,.62,1.86,1.86,0,0,0-.78,1.52l-2.06-.22a3.14,3.14,0,0,1,1.35-2.61,5.63,5.63,0,0,1,3.45-1,5.29,5.29,0,0,1,2.27.46,3.53,3.53,0,0,1,1.54,1.4,4.91,4.91,0,0,1,1.68-1.37,5.19,5.19,0,0,1,5.79.95,5.79,5.79,0,0,1,1.3,4v1.29h-8.14a4.6,4.6,0,0,0,1.05,3,3.37,3.37,0,0,0,2.64,1.07,5.55,5.55,0,0,0,3-.85l.52-.35L639,145A6.81,6.81,0,0,1,634.75,146.36Zm-8.87-1.68a4.06,4.06,0,0,0,1.69-.41,4.64,4.64,0,0,0,1.44-1V140.6h-2.55a3.36,3.36,0,0,0-2.09.64,1.88,1.88,0,0,0-.78,1.54,1.74,1.74,0,0,0,.59,1.38A2.47,2.47,0,0,0,625.88,144.68Zm8.38-9.17a2.67,2.67,0,0,0-2.12,1,4.52,4.52,0,0,0-1,2.51h6v-.35a3.3,3.3,0,0,0-.75-2.3A2.72,2.72,0,0,0,634.26,135.51Z"/><path class="cls-2" d="M643.5,134l.06,1.52a4.42,4.42,0,0,1,3.63-1.74q3.82,0,3.87,4.33v8H649v-8a2.81,2.81,0,0,0-.6-1.94,2.38,2.38,0,0,0-1.83-.62,3.06,3.06,0,0,0-1.77.53,3.69,3.69,0,0,0-1.18,1.41v8.63h-2.07V134Z"/><path class="cls-2" d="M654.19,130.82a1.24,1.24,0,0,1,.31-.85,1.13,1.13,0,0,1,.91-.34,1.15,1.15,0,0,1,.91.34,1.25,1.25,0,0,1,.32.85,1.17,1.17,0,0,1-.32.84,1.15,1.15,0,0,1-.91.34,1.13,1.13,0,0,1-.91-.34A1.16,1.16,0,0,1,654.19,130.82Zm2.23,15.32h-2.06V134h2.06Z"/><path class="cls-2" d="M661.69,134l.07,1.52a4.4,4.4,0,0,1,3.62-1.74q3.84,0,3.87,4.33v8h-2.07v-8a2.76,2.76,0,0,0-.59-1.94,2.41,2.41,0,0,0-1.83-.62,3.06,3.06,0,0,0-1.77.53,3.72,3.72,0,0,0-1.19,1.41v8.63h-2.07V134Z"/><path class="cls-2" d="M671.88,140a7.14,7.14,0,0,1,1.31-4.5,4.2,4.2,0,0,1,3.47-1.67,4.14,4.14,0,0,1,3.45,1.57l.1-1.35h1.89v11.81a4.92,4.92,0,0,1-1.39,3.71A5.14,5.14,0,0,1,677,150.9a6.26,6.26,0,0,1-2.56-.56,4.34,4.34,0,0,1-1.91-1.53l1.07-1.24a4.06,4.06,0,0,0,3.26,1.64,3.15,3.15,0,0,0,2.35-.85A3.25,3.25,0,0,0,680,146v-1a4.25,4.25,0,0,1-3.39,1.43,4.12,4.12,0,0,1-3.43-1.71A7.47,7.47,0,0,1,671.88,140Zm2.08.24a5.39,5.39,0,0,0,.84,3.21,2.72,2.72,0,0,0,2.35,1.17,3,3,0,0,0,2.87-1.77V137.3a3,3,0,0,0-2.85-1.73,2.77,2.77,0,0,0-2.36,1.17A6,6,0,0,0,674,140.22Z"/><path class="cls-2" d="M692.27,142.93a1.54,1.54,0,0,0-.63-1.31,6.22,6.22,0,0,0-2.2-.8,10.51,10.51,0,0,1-2.5-.8,3.62,3.62,0,0,1-1.36-1.12,2.63,2.63,0,0,1-.44-1.54,3.13,3.13,0,0,1,1.25-2.52,4.9,4.9,0,0,1,3.22-1,5.07,5.07,0,0,1,3.34,1.06,3.4,3.4,0,0,1,1.28,2.72h-2.08a1.85,1.85,0,0,0-.72-1.46,2.71,2.71,0,0,0-1.82-.62,2.84,2.84,0,0,0-1.77.49,1.56,1.56,0,0,0-.63,1.29,1.24,1.24,0,0,0,.59,1.13,7.62,7.62,0,0,0,2.14.73,11.18,11.18,0,0,1,2.51.82,3.7,3.7,0,0,1,1.43,1.16,2.84,2.84,0,0,1,.46,1.65,3.08,3.08,0,0,1-1.3,2.6,5.43,5.43,0,0,1-3.36,1,6,6,0,0,1-2.58-.52,4.21,4.21,0,0,1-1.75-1.43,3.48,3.48,0,0,1-.63-2h2.07a2.19,2.19,0,0,0,.83,1.65,3.24,3.24,0,0,0,2.06.61,3.38,3.38,0,0,0,1.88-.47A1.45,1.45,0,0,0,692.27,142.93Z"/><path class="cls-2" d="M699.84,131.1V134h2.26v1.6h-2.26v7.52a1.63,1.63,0,0,0,.31,1.09,1.26,1.26,0,0,0,1,.36,5,5,0,0,0,1-.13v1.67a5.91,5.91,0,0,1-1.59.22,2.58,2.58,0,0,1-2.09-.84,3.6,3.6,0,0,1-.71-2.38v-7.51h-2.2V134h2.2V131.1Z"/><path class="cls-2" d="M704,140a7.18,7.18,0,0,1,.69-3.19,5.24,5.24,0,0,1,1.94-2.19,5.34,5.34,0,0,1,2.86-.78,5.57,5.57,0,0,1,2.28.47l.82-1.66H714l-1.14,2.3a6.35,6.35,0,0,1,2.18,5.3,7.08,7.08,0,0,1-.7,3.19,5.15,5.15,0,0,1-1.94,2.18,5.4,5.4,0,0,1-2.86.77,5.61,5.61,0,0,1-2.13-.39l-.83,1.66h-1.38l1.11-2.27C704.74,144.25,704,142.46,704,140Zm2.07.25a5,5,0,0,0,1.08,3.41l3.84-7.76a3.19,3.19,0,0,0-1.5-.36,3,3,0,0,0-2.48,1.22A5.6,5.6,0,0,0,706,140.22Zm6.87-.25a5.14,5.14,0,0,0-1-3.27l-3.8,7.69a3.18,3.18,0,0,0,1.36.28,3,3,0,0,0,2.48-1.22,5.28,5.28,0,0,0,.94-3.3Z"/><path class="cls-2" d="M719.63,134v13.5q0,3.5-3.17,3.49a3.7,3.7,0,0,1-1.26-.2v-1.64a4,4,0,0,0,.94.09,1.41,1.41,0,0,0,1.06-.38,1.85,1.85,0,0,0,.36-1.3V134Zm-2.28-3.21a1.21,1.21,0,0,1,.31-.84,1.1,1.1,0,0,1,.9-.35,1.16,1.16,0,0,1,.91.34,1.25,1.25,0,0,1,.32.85,1.14,1.14,0,0,1-1.23,1.18,1.13,1.13,0,0,1-.91-.34A1.2,1.2,0,0,1,717.35,130.82Z"/><path class="cls-2" d="M728,146.36a5.27,5.27,0,0,1-4-1.62,6,6,0,0,1-1.54-4.32V140a7.42,7.42,0,0,1,.68-3.22,5.33,5.33,0,0,1,1.93-2.21,4.86,4.86,0,0,1,2.68-.8,4.57,4.57,0,0,1,3.67,1.55,6.78,6.78,0,0,1,1.3,4.46v.86h-8.19a4.3,4.3,0,0,0,1,2.89,3.31,3.31,0,0,0,2.55,1.1,3.55,3.55,0,0,0,1.85-.45,4.66,4.66,0,0,0,1.33-1.18l1.27,1A5.1,5.1,0,0,1,728,146.36Zm-.25-10.85a2.76,2.76,0,0,0-2.11.91,4.52,4.52,0,0,0-1,2.56h6.06v-.16a3.92,3.92,0,0,0-.84-2.44A2.61,2.61,0,0,0,727.73,135.51Z"/><path class="cls-2" d="M737.91,131.1V134h2.26v1.6h-2.26v7.52a1.69,1.69,0,0,0,.3,1.09,1.27,1.27,0,0,0,1,.36,5,5,0,0,0,1-.13v1.67a5.91,5.91,0,0,1-1.59.22,2.58,2.58,0,0,1-2.09-.84,3.59,3.59,0,0,1-.7-2.38v-7.51h-2.21V134h2.21V131.1Z"/></g><g class="cls-1"><path class="cls-2" d="M607.92,168.61a7.2,7.2,0,0,1,.7-3.2,5.18,5.18,0,0,1,4.79-3,5.08,5.08,0,0,1,4,1.72,6.56,6.56,0,0,1,1.53,4.55v.14a7.2,7.2,0,0,1-.68,3.17,5.09,5.09,0,0,1-1.93,2.19,5.39,5.39,0,0,1-2.89.78,5.1,5.1,0,0,1-4-1.71,6.54,6.54,0,0,1-1.53-4.53Zm2.08.24a5.12,5.12,0,0,0,.94,3.23,3.16,3.16,0,0,0,5,0,5.67,5.67,0,0,0,.93-3.46,5.17,5.17,0,0,0-1-3.23,3.14,3.14,0,0,0-5,0A5.68,5.68,0,0,0,610,168.85Z"/><path class="cls-2" d="M621,168.62a7.11,7.11,0,0,1,1.31-4.5,4.5,4.5,0,0,1,6.92-.11l.1-1.34h1.89v11.81a4.92,4.92,0,0,1-1.39,3.7,5.14,5.14,0,0,1-3.74,1.35,6.24,6.24,0,0,1-2.56-.55,4.43,4.43,0,0,1-1.91-1.54l1.07-1.24a4,4,0,0,0,3.26,1.65,3.19,3.19,0,0,0,2.35-.85,3.28,3.28,0,0,0,.84-2.4v-1a4.21,4.21,0,0,1-3.39,1.43,4.12,4.12,0,0,1-3.43-1.71A7.44,7.44,0,0,1,621,168.62Zm2.08.23a5.43,5.43,0,0,0,.84,3.22,2.72,2.72,0,0,0,2.35,1.17,3,3,0,0,0,2.87-1.78v-5.53a3.06,3.06,0,0,0-2.85-1.73,2.77,2.77,0,0,0-2.36,1.17A6,6,0,0,0,623.12,168.85Z"/><path class="cls-2" d="M647.1,171.56a1.52,1.52,0,0,0-.63-1.3,6,6,0,0,0-2.2-.8,10.94,10.94,0,0,1-2.5-.81,3.45,3.45,0,0,1-1.36-1.12A2.61,2.61,0,0,1,640,166a3.17,3.17,0,0,1,1.25-2.52,5,5,0,0,1,3.22-1,5.05,5.05,0,0,1,3.34,1.07,3.36,3.36,0,0,1,1.28,2.71H647a1.87,1.87,0,0,0-.72-1.46,2.71,2.71,0,0,0-1.82-.62,2.84,2.84,0,0,0-1.77.5,1.53,1.53,0,0,0-.63,1.28,1.24,1.24,0,0,0,.59,1.13,7,7,0,0,0,2.14.73,11.14,11.14,0,0,1,2.51.83,3.68,3.68,0,0,1,1.43,1.15,2.88,2.88,0,0,1,.46,1.65,3.07,3.07,0,0,1-1.3,2.6,5.36,5.36,0,0,1-3.36,1,6.11,6.11,0,0,1-2.57-.51,4.19,4.19,0,0,1-1.76-1.44,3.46,3.46,0,0,1-.63-2h2.07a2.13,2.13,0,0,0,.84,1.65,3.19,3.19,0,0,0,2,.61,3.3,3.3,0,0,0,1.88-.47A1.45,1.45,0,0,0,647.1,171.56Z"/><path class="cls-2" d="M654.67,159.74v2.93h2.26v1.6h-2.26v7.51a1.67,1.67,0,0,0,.31,1.09,1.24,1.24,0,0,0,1,.37,5.14,5.14,0,0,0,1-.14v1.67a5.91,5.91,0,0,1-1.59.22,2.58,2.58,0,0,1-2.09-.84,3.58,3.58,0,0,1-.7-2.38v-7.5H650.4v-1.6h2.21v-2.93Z"/><path class="cls-2" d="M666.82,174.77a4.49,4.49,0,0,1-.29-1.28,4.61,4.61,0,0,1-3.44,1.5,4.24,4.24,0,0,1-2.94-1,3.29,3.29,0,0,1-1.15-2.57,3.41,3.41,0,0,1,1.44-2.93,6.76,6.76,0,0,1,4-1h2v-1a2.35,2.35,0,0,0-.65-1.73,2.59,2.59,0,0,0-1.91-.64,3,3,0,0,0-1.86.56,1.64,1.64,0,0,0-.75,1.35h-2.08a2.87,2.87,0,0,1,.64-1.75,4.32,4.32,0,0,1,1.75-1.33,5.82,5.82,0,0,1,2.42-.5,4.79,4.79,0,0,1,3.28,1.05,3.78,3.78,0,0,1,1.23,2.88v5.57a6.9,6.9,0,0,0,.42,2.65v.18Zm-3.43-1.58a3.66,3.66,0,0,0,1.84-.5,3.07,3.07,0,0,0,1.27-1.31V168.9h-1.62q-3.81,0-3.81,2.22a1.88,1.88,0,0,0,.65,1.52A2.47,2.47,0,0,0,663.39,173.19Z"/><path class="cls-2" d="M677.66,164.52a6.45,6.45,0,0,0-1-.07,2.71,2.71,0,0,0-2.76,1.73v8.59h-2.07v-12.1h2l0,1.4a3.21,3.21,0,0,1,2.88-1.63,2.17,2.17,0,0,1,.92.16Z"/><path class="cls-2" d="M682.93,159.74v2.93h2.26v1.6h-2.26v7.51a1.67,1.67,0,0,0,.3,1.09,1.24,1.24,0,0,0,1,.37,5,5,0,0,0,1-.14v1.67a5.91,5.91,0,0,1-1.59.22,2.58,2.58,0,0,1-2.09-.84,3.58,3.58,0,0,1-.7-2.38v-7.5h-2.21v-1.6h2.21v-2.93Z"/></g></g><g id="Group_11" data-name="Group 11"><circle id="Ellipse_9" data-name="Ellipse 9" class="cls-3" cx="128.21" cy="63.1" r="48.68"/><line id="Line_15" data-name="Line 15" class="cls-4" x1="176.8" y1="65.41" x2="338.66" y2="65.41"/><line id="Line_16" data-name="Line 16" class="cls-4" x1="436.02" y1="64.53" x2="599.23" y2="64.53"/><g id="_1" data-name=" 1" class="cls-1"><g class="cls-1"><path class="cls-5" d="M125.09,55.62h-5.93v-4a15.06,15.06,0,0,0,3.89-.41,5,5,0,0,0,2.35-1.37,8.21,8.21,0,0,0,1.54-2.76h3.82V83.14h-5.67Z"/></g></g><circle id="Ellipse_11" data-name="Ellipse 11" class="cls-3" cx="646.47" cy="63.1" r="48.68"/><path id="Path_2" data-name="Path 2" class="cls-3" d="M387.34,14.42A49.42,49.42,0,0,1,437.45,63.1a50.13,50.13,0,0,1-100.22,0A49.41,49.41,0,0,1,387.34,14.42Z"/><g id="_2" data-name=" 2" class="cls-1"><g class="cls-1"><path class="cls-5" d="M380.47,76.36a16.19,16.19,0,0,1,1.24-6.62,23.11,23.11,0,0,1,4.43-6.11,26.91,26.91,0,0,0,4.36-5.72A10.71,10.71,0,0,0,391.71,53a5.17,5.17,0,0,0-.75-3.22,2.69,2.69,0,0,0-2.19-.9q-2.94,0-2.94,3.56v3.86h-5.36v-3.5c0-2.92.73-5.16,2.17-6.73a9.61,9.61,0,0,1,12.57,0q2.18,2.36,2.17,6.73a14.22,14.22,0,0,1-1.57,6.44,31.81,31.81,0,0,1-5.44,7.22,21.58,21.58,0,0,0-3.4,4.35,7.56,7.56,0,0,0-.88,3.58v.78h10.77v5.15H380.47Z"/></g></g><g id="_3" data-name=" 3" class="cls-1"><g class="cls-1"><path class="cls-5" d="M640,81.34c-1.42-1.55-2.14-3.76-2.14-6.65V71.75h5.36V75q0,3.55,2.94,3.55a2.69,2.69,0,0,0,2.19-.9,5.06,5.06,0,0,0,.75-3.17V71.49a5.55,5.55,0,0,0-.88-3.53,3.48,3.48,0,0,0-2.83-1h-1.91V61.75h2.06a3.39,3.39,0,0,0,2.55-.87,4.15,4.15,0,0,0,.85-2.94V55.31a4,4,0,0,0-.77-2.73,2.62,2.62,0,0,0-2.06-.88q-2.73,0-2.73,3.35v2.37H638v-1.9c0-2.89.71-5.1,2.14-6.65a9.41,9.41,0,0,1,12.34,0q2.12,2.29,2.11,6.63v1.28a9.71,9.71,0,0,1-1,4.72,5.48,5.48,0,0,1-3,2.55v.1a5.7,5.7,0,0,1,3.2,2.68,10.18,10.18,0,0,1,1,4.75v3.19c0,2.89-.72,5.1-2.14,6.62s-3.53,2.3-6.31,2.3S641.43,82.88,640,81.34Z"/></g></g></g></g></svg>
