<svg id="Layer_1" data-name="Layer 1" xmlns="http://www.w3.org/2000/svg" width="600" height="700" viewBox="0 0 600 700"><defs><style>.cls-1{fill:#393536;}.cls-2{fill:#595758;}.cls-3{fill:#f28705;}.cls-4{fill:#eab881;}</style></defs><path class="cls-1" d="M429,395h10.72S445,425,368,430l16,64-14,4-5-16s-63,14-98,49c0,0-68,55-99,139H134S155,615,182,581c0,0,80-102,180-110l-13-52S422,426,429,395Z"/><path class="cls-1" d="M163,466s-2-16,21-17c0,0,35.46,11,46.23,8.5,0,0,5.14.5,8.46,8.5,0,0-18.69,4-29.69,5l6,23s37.62-.77,51.81,11.62l-17.14,11.67S237,504,218,506l5,21s-9-1-15,2l-14-57S168,470,163,466Z"/><path class="cls-1" d="M102.16,670,100,680H184S219,673,231,663c0,0,40.25-24,97.13,0,0,0,34.54,17,46.21,17H458.9l-2.31-10H427.48l-8-33.56S409,640,405,640l8.15,30H380.81S338,661,333,656c0,0-30-16-50-15,0,0-41,0-53,13,0,0-36,15-46.51,16Z"/><circle class="cls-1" cx="398" cy="565.5" r="75"/><circle class="cls-2" cx="398" cy="565.5" r="67.81"/><circle class="cls-1" cx="398" cy="565.5" r="64.73"/><path class="cls-3" d="M329,599l56-6s19-5,19-24c0,0,1-24-21-28L223,527s-40-3-43,42c0,0,3,41,43,39Z"/><circle class="cls-1" cx="219" cy="568" r="12"/><ellipse class="cls-4" cx="274.27" cy="544.56" rx="1.69" ry="42.61" transform="translate(-294.96 763.05) rotate(-84.27)"/><path class="cls-1" d="M146.69,14h31.72L203,110.27h.46V14H226V174.84H200L169.68,57.41h-.46V174.84H146.69Z"/><path class="cls-1" d="M244.82,14h68.95V37H270.1V79.47h34.71v23H270.1v49.41h43.67v23H244.82Z"/><path class="cls-1" d="M322.27,14h24.36l11.26,123.64h.46L370.3,14h27.58l11.95,123.64h.46L421.55,14h21.83L427.07,174.84H395.58L384.09,66.37h-.46L372.14,174.84H338.59Z"/><path class="cls-1" d="M40,194h66.87v23H65.23v44.82H97.86v23H65.23v70.09H40Z"/><path class="cls-1" d="M119,194h25.28V354.84H119Z"/><path class="cls-1" d="M182.89,217H156.46V194H234.6v23H208.17V354.84H182.89Z"/><path class="cls-1" d="M246.78,194h31.71l24.59,96.29h.46V194h22.52V354.84h-26L269.76,237.41h-.46V354.84H246.78Z"/><path class="cls-1" d="M344.91,194h68.94v23H370.19v42.52h34.7v23h-34.7v49.41h43.66v23H344.91Z"/><path class="cls-1" d="M433.84,346.69q-9.42-10.47-9.42-30V307.5h23.9v11q0,15.63,13.1,15.63,6.43,0,9.77-3.79t3.33-12.3a34,34,0,0,0-4.6-17.81q-4.59-7.69-17-18.5Q437.29,268,431.08,256.83a50.92,50.92,0,0,1-6.2-25.17q0-19.07,9.65-29.53t28-10.46q18.15,0,27.46,10.46t9.31,30v6.67h-23.9v-8.28q0-8.26-3.22-12.06c-2.15-2.53-5.28-3.79-9.42-3.79q-12.65,0-12.64,15.39a30.38,30.38,0,0,0,4.71,16.32Q459.58,254,472,264.76q15.86,13.78,21.84,25.05t6,26.42q0,19.77-9.77,30.34t-28.38,10.57Q443.26,357.14,433.84,346.69Z"/><path class="cls-1" d="M519.33,346.69q-9.42-10.47-9.42-30V307.5h23.9v11q0,15.63,13.1,15.63,6.44,0,9.77-3.79t3.33-12.3a34,34,0,0,0-4.6-17.81q-4.59-7.69-17-18.5Q522.78,268,516.58,256.83a50.82,50.82,0,0,1-6.21-25.17q0-19.07,9.65-29.53t28-10.46q18.15,0,27.46,10.46t9.31,30v6.67h-23.9v-8.28q0-8.26-3.22-12.06t-9.42-3.79q-12.64,0-12.64,15.39a30.38,30.38,0,0,0,4.71,16.32q4.71,7.59,17.12,18.39,15.85,13.78,21.84,25.05t6,26.42q0,19.77-9.77,30.34t-28.38,10.57Q528.75,357.14,519.33,346.69Z"/><path class="cls-3" d="M135.69,14h31.72L192,110.27h.46V14H215V174.84H189L158.68,57.41h-.46V174.84H135.69Z"/><path class="cls-3" d="M233.82,14h68.95V37H259.1V79.47h34.71v23H259.1v49.41h43.67v23H233.82Z"/><path class="cls-3" d="M311.27,14h24.36l11.26,123.64h.46L359.3,14h27.58l11.95,123.64h.46L410.55,14h21.83L416.07,174.84H384.58L373.09,66.37h-.46L361.14,174.84H327.59Z"/><path class="cls-3" d="M29,194H95.82v23H54.23v44.82H86.86v23H54.23v70.09H29Z"/><path class="cls-3" d="M108,194h25.28V354.84H108Z"/><path class="cls-3" d="M171.89,217H145.46V194H223.6v23H197.17V354.84H171.89Z"/><path class="cls-3" d="M235.78,194h31.71l24.59,96.29h.46V194h22.52V354.84h-26L258.76,237.41h-.46V354.84H235.78Z"/><path class="cls-3" d="M333.91,194h68.94v23H359.19v42.52h34.7v23h-34.7v49.41h43.66v23H333.91Z"/><path class="cls-3" d="M422.84,346.69q-9.42-10.47-9.42-30V307.5h23.9v11q0,15.63,13.1,15.63,6.43,0,9.77-3.79t3.33-12.3a34,34,0,0,0-4.6-17.81q-4.59-7.69-17-18.5Q426.29,268,420.08,256.83a50.92,50.92,0,0,1-6.2-25.17q0-19.07,9.65-29.53t28-10.46q18.15,0,27.46,10.46t9.31,30v6.67h-23.9v-8.28q0-8.26-3.22-12.06c-2.15-2.53-5.28-3.79-9.42-3.79q-12.65,0-12.64,15.39a30.38,30.38,0,0,0,4.71,16.32Q448.58,254,461,264.76q15.86,13.78,21.84,25.05t6,26.42q0,19.77-9.77,30.34t-28.38,10.57Q432.26,357.14,422.84,346.69Z"/><path class="cls-3" d="M508.33,346.69q-9.42-10.47-9.42-30V307.5h23.9v11q0,15.63,13.1,15.63,6.44,0,9.77-3.79t3.33-12.3a34,34,0,0,0-4.6-17.81q-4.59-7.69-17-18.5Q511.78,268,505.58,256.83a50.82,50.82,0,0,1-6.21-25.17q0-19.07,9.65-29.53t28-10.46q18.15,0,27.46,10.46t9.31,30v6.67h-23.9v-8.28q0-8.26-3.22-12.06t-9.42-3.79q-12.64,0-12.64,15.39a30.38,30.38,0,0,0,4.71,16.32q4.71,7.59,17.12,18.39,15.85,13.78,21.84,25.05t6,26.42q0,19.77-9.77,30.34t-28.38,10.57Q517.75,357.14,508.33,346.69Z"/></svg>
