<svg id="Layer_1" data-name="Layer 1" xmlns="http://www.w3.org/2000/svg" width="131" height="43" viewBox="0 0 131 43"><defs><style>.cls-1{fill:#f28705;}.cls-2{isolation:isolate;}.cls-3{fill:#fff;}</style></defs><g id="Group_23" data-name="Group 23"><rect id="Rectangle_22" data-name="Rectangle 22" class="cls-1" x="-0.45" y="-0.37" width="131.71" height="42.95"/><g id="TILMELD" class="cls-2"><g class="cls-2"><path class="cls-3" d="M36.82,14.52H34.19v-2.3H42v2.3H39.34V28.26H36.82Z"/><path class="cls-3" d="M44.11,12.22h2.51v16H44.11Z"/><path class="cls-3" d="M49.42,12.22h2.52V26h4.14v2.29H49.42Z"/><path class="cls-3" d="M58.22,12.22h3.59L63.42,23.7h0l1.6-11.48h3.6v16H66.28V16.12h0L64.4,28.26H62.29L60.46,16.12h0V28.26h-2.2Z"/><path class="cls-3" d="M71.46,12.22h6.87v2.3H74v4.23h3.46V21H74V26h4.36v2.29H71.46Z"/><path class="cls-3" d="M80.69,12.22h2.52V26h4.14v2.29H80.69Z"/><path class="cls-3" d="M89.48,12.22h3.85a3.69,3.69,0,0,1,2.82,1,4.22,4.22,0,0,1,.94,3V24.3a4.21,4.21,0,0,1-.94,2.95,3.69,3.69,0,0,1-2.82,1H89.48ZM93.28,26a1.22,1.22,0,0,0,1-.37,1.75,1.75,0,0,0,.33-1.19V16.07a1.76,1.76,0,0,0-.33-1.19,1.25,1.25,0,0,0-1-.36H92V26Z"/></g></g></g></svg>
