<svg id="Layer_1" data-name="Layer 1" xmlns="http://www.w3.org/2000/svg" width="600" height="700" viewBox="0 0 600 700"><defs><style>.cls-1{fill:#393536;}.cls-2{fill:#595758;}.cls-3{fill:#f28705;}.cls-4{fill:#eab881;}</style></defs><path class="cls-1" d="M434,14h10.72S450,44,373,49l16,64-14,4-5-16s-63,14-98,49c0,0-68,55-99,139H139S160,234,187,200c0,0,80-102,180-110L354,38S427,45,434,14Z"/><path class="cls-1" d="M168,85s-2-16,21-17c0,0,35.46,11,46.23,8.5,0,0,5.14.5,8.46,8.5,0,0-18.69,4-29.69,5l6,23s37.62-.77,51.81,11.62l-17.14,11.67S242,123,223,125l5,21s-9-1-15,2L199,91S173,89,168,85Z"/><path class="cls-1" d="M107.16,289,105,299H189S224,292,236,282c0,0,40.25-24,97.13,0,0,0,34.54,17,46.21,17H463.9l-2.31-10H432.48l-8-33.56S414,259,410,259l8.15,30H385.81S343,280,338,275c0,0-30-16-50-15,0,0-41,0-53,13,0,0-36,15-46.51,16Z"/><circle class="cls-1" cx="403" cy="184.5" r="75"/><circle class="cls-2" cx="403" cy="184.5" r="67.81"/><circle class="cls-1" cx="403" cy="184.5" r="64.73"/><path class="cls-3" d="M334,218l56-6s19-5,19-24c0,0,1-24-21-28L228,146s-40-3-43,42c0,0,3,41,43,39Z"/><circle class="cls-1" cx="224" cy="187" r="12"/><ellipse class="cls-4" cx="279.27" cy="163.56" rx="1.69" ry="42.61" transform="translate(88.63 425.09) rotate(-84.27)"/><path class="cls-1" d="M138.69,330h31.72L195,426.27h.46V330H218V490.84H192L161.68,373.41h-.46V490.84H138.69Z"/><path class="cls-1" d="M236.82,330h68.95v23H262.1v42.52h34.71v23H262.1v49.41h43.67v23H236.82Z"/><path class="cls-1" d="M314.27,330h24.36l11.26,123.64h.46L362.3,330h27.58l11.95,123.64h.46L413.55,330h21.83L419.07,490.84H387.58L376.09,382.37h-.46L364.14,490.84H330.59Z"/><path class="cls-1" d="M32,510H98.82v23H57.23v44.82H89.86v23H57.23v70.09H32Z"/><path class="cls-1" d="M111,510h25.28V670.84H111Z"/><path class="cls-1" d="M174.89,533H148.46V510H226.6v23H200.17V670.84H174.89Z"/><path class="cls-1" d="M238.78,510h31.71l24.59,96.29h.46V510h22.52V670.84h-26L261.76,553.41h-.46V670.84H238.78Z"/><path class="cls-1" d="M336.91,510h68.94v23H362.19v42.52h34.7v23h-34.7v49.41h43.66v23H336.91Z"/><path class="cls-1" d="M425.84,662.69q-9.42-10.47-9.42-30V623.5h23.9v11q0,15.63,13.1,15.63,6.43,0,9.77-3.79t3.33-12.3a34,34,0,0,0-4.6-17.81q-4.59-7.69-17-18.5Q429.29,584,423.08,572.83a50.92,50.92,0,0,1-6.2-25.17q0-19.06,9.65-29.53t28-10.46q18.15,0,27.46,10.46t9.31,30v6.67h-23.9v-8.28q0-8.26-3.22-12.06c-2.15-2.53-5.28-3.79-9.42-3.79q-12.65,0-12.64,15.39a30.38,30.38,0,0,0,4.71,16.32Q451.58,570,464,580.76q15.86,13.79,21.84,25t6,26.42q0,19.77-9.77,30.34t-28.38,10.57Q435.26,673.14,425.84,662.69Z"/><path class="cls-1" d="M511.33,662.69q-9.42-10.47-9.42-30V623.5h23.9v11q0,15.63,13.1,15.63,6.44,0,9.77-3.79t3.33-12.3a34,34,0,0,0-4.6-17.81q-4.59-7.69-17-18.5Q514.78,584,508.58,572.83a50.82,50.82,0,0,1-6.21-25.17q0-19.06,9.65-29.53t28-10.46q18.15,0,27.46,10.46t9.31,30v6.67h-23.9v-8.28q0-8.26-3.22-12.06t-9.42-3.79q-12.64,0-12.64,15.39a30.38,30.38,0,0,0,4.71,16.32q4.71,7.59,17.12,18.39,15.85,13.79,21.84,25t6,26.42q0,19.77-9.77,30.34t-28.38,10.57Q520.75,673.14,511.33,662.69Z"/><path class="cls-3" d="M127.69,330h31.72L184,426.27h.46V330H207V490.84H181L150.68,373.41h-.46V490.84H127.69Z"/><path class="cls-3" d="M225.82,330h68.95v23H251.1v42.52h34.71v23H251.1v49.41h43.67v23H225.82Z"/><path class="cls-3" d="M303.27,330h24.36l11.26,123.64h.46L351.3,330h27.58l11.95,123.64h.46L402.55,330h21.83L408.07,490.84H376.58L365.09,382.37h-.46L353.14,490.84H319.59Z"/><path class="cls-3" d="M21,510H87.82v23H46.23v44.82H78.86v23H46.23v70.09H21Z"/><path class="cls-3" d="M100,510h25.28V670.84H100Z"/><path class="cls-3" d="M163.89,533H137.46V510H215.6v23H189.17V670.84H163.89Z"/><path class="cls-3" d="M227.78,510h31.71l24.59,96.29h.46V510h22.52V670.84h-26L250.76,553.41h-.46V670.84H227.78Z"/><path class="cls-3" d="M325.91,510h68.94v23H351.19v42.52h34.7v23h-34.7v49.41h43.66v23H325.91Z"/><path class="cls-3" d="M414.84,662.69q-9.42-10.47-9.42-30V623.5h23.9v11q0,15.63,13.1,15.63,6.43,0,9.77-3.79t3.33-12.3a34,34,0,0,0-4.6-17.81q-4.59-7.69-17-18.5Q418.29,584,412.08,572.83a50.92,50.92,0,0,1-6.2-25.17q0-19.06,9.65-29.53t28-10.46q18.15,0,27.46,10.46t9.31,30v6.67h-23.9v-8.28q0-8.26-3.22-12.06c-2.15-2.53-5.28-3.79-9.42-3.79q-12.65,0-12.64,15.39a30.38,30.38,0,0,0,4.71,16.32Q440.58,570,453,580.76q15.86,13.79,21.84,25t6,26.42q0,19.77-9.77,30.34t-28.38,10.57Q424.26,673.14,414.84,662.69Z"/><path class="cls-3" d="M500.33,662.69q-9.42-10.47-9.42-30V623.5h23.9v11q0,15.63,13.1,15.63,6.44,0,9.77-3.79t3.33-12.3a34,34,0,0,0-4.6-17.81q-4.59-7.69-17-18.5Q503.78,584,497.58,572.83a50.82,50.82,0,0,1-6.21-25.17q0-19.06,9.65-29.53t28-10.46q18.15,0,27.46,10.46t9.31,30v6.67h-23.9v-8.28q0-8.26-3.22-12.06t-9.42-3.79q-12.64,0-12.64,15.39a30.38,30.38,0,0,0,4.71,16.32q4.71,7.59,17.12,18.39,15.85,13.79,21.84,25t6,26.42q0,19.77-9.77,30.34t-28.38,10.57Q509.75,673.14,500.33,662.69Z"/></svg>
