<svg id="Layer_1" data-name="Layer 1" xmlns="http://www.w3.org/2000/svg" width="800" height="400" viewBox="0 0 800 400"><defs><style>.cls-1{fill:#393536;}.cls-2{fill:#f38106;}.cls-3{fill:#595758;}.cls-4{fill:#f28705;}.cls-5{fill:#eab881;}</style></defs><path class="cls-1" d="M440,63.31h24.67l19.12,74.88h.36V63.31h17.51v125.1H481.45L457.86,97.09h-.36v91.32H440Z"/><path class="cls-1" d="M516.3,63.31h53.61V81.18H536v33.06h27v17.88H536v38.42h33.95v17.87H516.3Z"/><path class="cls-1" d="M576.52,63.31h19l8.76,96.15h.35l9.3-96.15h21.45l9.29,96.15H645l8.75-96.15h17L658,188.41H633.54l-8.94-84.35h-.36l-8.93,84.35h-26.1Z"/><path class="cls-1" d="M357,203.29h52v17.87H376.63V256H402v17.88H376.63V328.4H357Z"/><path class="cls-1" d="M418.45,203.29h19.66V328.4H418.45Z"/><path class="cls-1" d="M468.13,221.16H447.58V203.29h60.76v17.87H487.79V328.4H468.13Z"/><path class="cls-1" d="M517.82,203.29h24.66l19.12,74.88H562V203.29h17.51V328.4H559.28l-23.59-91.33h-.36V328.4H517.82Z"/><path class="cls-1" d="M594.13,203.29h53.62v17.87h-34v33.07h27V272.1h-27v38.42h34V328.4H594.13Z"/><path class="cls-1" d="M663.29,322.05Q656,313.92,656,298.73v-7.15h18.59v8.58q0,12.15,10.19,12.15c3.33,0,5.87-1,7.6-2.95s2.59-5.15,2.59-9.56A26.53,26.53,0,0,0,691.35,286q-3.57-6-13.22-14.39-12.17-10.72-17-19.39a39.51,39.51,0,0,1-4.83-19.57q0-14.83,7.51-23t21.8-8.13q14.11,0,21.36,8.13T714.23,233v5.18H695.64v-6.43q0-6.44-2.5-9.39c-1.67-2-4.11-2.95-7.33-2.95q-9.82,0-9.83,12A23.55,23.55,0,0,0,679.65,244q3.66,5.9,13.31,14.3,12.33,10.73,17,19.48t4.65,20.55q0,15.38-7.6,23.59t-22.07,8.22Q670.61,330.18,663.29,322.05Z"/><path class="cls-1" d="M729.78,322.05q-7.34-8.13-7.33-23.32v-7.15H741v8.58q0,12.15,10.18,12.15,5,0,7.6-2.95t2.59-9.56A26.52,26.52,0,0,0,757.84,286q-3.58-6-13.23-14.39-12.15-10.72-17-19.39a39.61,39.61,0,0,1-4.82-19.57q0-14.83,7.5-23t21.81-8.13q14.11,0,21.36,8.13T780.71,233v5.18H762.13v-6.43q0-6.44-2.51-9.39c-1.67-2-4.11-2.95-7.32-2.95q-9.84,0-9.83,12A23.63,23.63,0,0,0,746.13,244q3.66,5.9,13.32,14.3,12.33,10.73,17,19.48t4.65,20.55q0,15.38-7.59,23.59t-22.08,8.22Q737.11,330.18,729.78,322.05Z"/><path class="cls-2" d="M431.43,63.31h24.66l19.12,74.88h.36V63.31h17.52v125.1h-20.2L449.3,97.09h-.36v91.32H431.43Z"/><path class="cls-2" d="M507.74,63.31h53.62V81.18h-34v33.06h27v17.88h-27v38.42h34v17.87H507.74Z"/><path class="cls-2" d="M568,63.31h18.94l8.76,96.15H596l9.29-96.15h21.45l9.29,96.15h.36l8.76-96.15h17l-12.69,125.1H625L616,104.06h-.35l-8.94,84.35H580.66Z"/><path class="cls-2" d="M348.41,203.29h52v17.87H368.07V256h25.38v17.88H368.07V328.4H348.41Z"/><path class="cls-2" d="M409.89,203.29h19.66V328.4H409.89Z"/><path class="cls-2" d="M459.57,221.16H439V203.29h60.77v17.87H479.23V328.4H459.57Z"/><path class="cls-2" d="M509.26,203.29h24.66l19.13,74.88h.35V203.29h17.52V328.4h-20.2l-23.59-91.33h-.36V328.4H509.26Z"/><path class="cls-2" d="M585.57,203.29h53.62v17.87h-34v33.07h27V272.1h-27v38.42h34V328.4H585.57Z"/><path class="cls-2" d="M654.74,322.05q-7.34-8.13-7.33-23.32v-7.15H666v8.58q0,12.15,10.18,12.15,5,0,7.6-2.95t2.59-9.56A26.52,26.52,0,0,0,682.8,286q-3.59-6-13.23-14.39-12.15-10.72-17-19.39a39.51,39.51,0,0,1-4.82-19.57q0-14.83,7.5-23t21.81-8.13q14.11,0,21.35,8.13T705.67,233v5.18H687.08v-6.43q0-6.44-2.5-9.39c-1.67-2-4.11-2.95-7.32-2.95q-9.84,0-9.83,12A23.63,23.63,0,0,0,671.09,244q3.66,5.9,13.31,14.3,12.35,10.73,17,19.48T706,298.37q0,15.38-7.6,23.59t-22.07,8.22Q662.07,330.18,654.74,322.05Z"/><path class="cls-2" d="M721.22,322.05q-7.34-8.13-7.33-23.32v-7.15h18.59v8.58q0,12.15,10.19,12.15c3.33,0,5.87-1,7.59-2.95s2.59-5.15,2.59-9.56A26.52,26.52,0,0,0,749.28,286q-3.57-6-13.23-14.39-12.15-10.72-17-19.39a39.51,39.51,0,0,1-4.83-19.57q0-14.83,7.51-23t21.8-8.13q14.12,0,21.36,8.13T772.16,233v5.18H753.57v-6.43c0-4.29-.84-7.42-2.5-9.39s-4.11-2.95-7.33-2.95q-9.82,0-9.83,12A23.63,23.63,0,0,0,737.57,244q3.66,5.9,13.32,14.3,12.33,10.73,17,19.48a43.33,43.33,0,0,1,4.64,20.55q0,15.38-7.59,23.59t-22.07,8.22Q728.54,330.18,721.22,322.05Z"/><path class="cls-1" d="M281.81,89.12h8.57s4.22,24-57.36,28l12.8,51.19-11.2,3.2-4-12.79s-50.39,11.19-78.38,39.19c0,0-54.39,44-79.19,111.17H45.82s16.83-44,38.43-71.18c0,0,64-81.58,144-88l-10.4-41.59S276.21,113.92,281.81,89.12Z"/><path class="cls-1" d="M69.05,145.91s-1.6-12.8,16.8-13.6c0,0,28.36,8.8,37,6.8,0,0,4.11.4,6.76,6.8,0,0-15,3.2-23.75,4l4.8,18.39s30.09-.61,41.44,9.29l-13.7,9.34s-10.14-10.63-25.34-9l4,16.8s-7.2-.8-12,1.6l-11.2-45.59S73.05,149.11,69.05,145.91Z"/><path class="cls-1" d="M20.39,309.07l-1.73,8H85.81s28-5.6,37.63-13.59c0,0,32.2-19.2,77.69,0,0,0,27.63,13.59,37,13.59h67.63l-1.85-8H280.59l-6.38-26.84s-8.4,2.85-11.6,2.85l6.52,24H243.26S209,301.88,205,297.88c0,0-24-12.8-40-12,0,0-32.79,0-42.39,10.4,0,0-28.81,12-37.2,12.79Z"/><circle class="cls-1" cx="257.01" cy="225.49" r="59.99"/><circle class="cls-3" cx="257.01" cy="225.49" r="54.24"/><circle class="cls-1" cx="257.01" cy="225.49" r="51.77"/><path class="cls-4" d="M201.82,252.29l44.79-4.8s15.2-4,15.2-19.2c0,0,.8-19.19-16.79-22.39L117,194.7s-32-2.4-34.39,33.59c0,0,2.4,32.79,34.39,31.19Z"/><path class="cls-1" d="M114.85,261.14c-31,0-33.77-32.4-33.8-32.73v-.22c.79-11.79,4.75-20.86,11.77-26.95,10.45-9.07,23.78-8.18,24.34-8.14l128.07,11.21h.07c18.75,3.41,18.12,23.83,18.11,24,0,16.17-16.22,20.63-16.39,20.67l-.24.05L202,253.88l-84.78,7.2C116.38,261.12,115.61,261.14,114.85,261.14Zm-30.6-32.86a41.32,41.32,0,0,0,5,15.5c5.78,10,15.1,14.73,27.67,14.11l84.71-7.2,44.64-4.78c1.39-.4,13.9-4.35,13.9-17.62,0-.79.5-17.86-15.41-20.81L116.9,196.29c-.1,0-12.59-.81-22,7.39C88.58,209.17,85,217.45,84.25,228.28Z"/><circle class="cls-1" cx="113.84" cy="227.49" r="9.6"/><ellipse class="cls-5" cx="158.05" cy="208.74" rx="1.35" ry="34.08" transform="translate(-65.44 345.15) rotate(-84.27)"/></svg>
