<svg id="Layer_1" data-name="Layer 1" xmlns="http://www.w3.org/2000/svg" width="400" height="400" viewBox="0 0 400 400"><defs><style>.cls-1{fill:#393536;}.cls-2{fill:#595758;}.cls-3{fill:#f28705;}.cls-4{fill:#eab881;}</style></defs><path class="cls-1" d="M339.66,42.12h10.73s5.27,30-71.73,35l16,64-14,4-5-16s-63,14-98,49c0,0-68,55-99,139h-34s21-55,48.05-89c0,0,80-102,180-110l-13-52S332.66,73.12,339.66,42.12Z"/><path class="cls-1" d="M73.66,113.12s-2-16,21-17c0,0,35.47,11,46.24,8.5,0,0,5.13.5,8.45,8.5,0,0-18.69,4-29.69,5l6,23s37.62-.77,51.81,11.62l-17.13,11.67s-12.68-13.29-31.68-11.29l5,21s-9-1-15,2l-14-57S78.66,117.12,73.66,113.12Z"/><path class="cls-1" d="M12.82,317.12l-2.16,10h84s35.05-7,47.05-17c0,0,40.25-24,97.13,0,0,0,34.54,17,46.21,17h84.56l-2.31-10H338.14l-8-33.56s-10.5,3.56-14.5,3.56l8.16,30H291.47s-42.81-9-47.81-14c0,0-30-16-50-15,0,0-41,0-53,13,0,0-36,15-46.51,16Z"/><circle class="cls-1" cx="308.66" cy="212.62" r="75"/><circle class="cls-2" cx="308.66" cy="212.62" r="67.81"/><circle class="cls-1" cx="308.66" cy="212.62" r="64.73"/><path class="cls-3" d="M239.66,246.12l56-6s19-5,19-24c0,0,1-24-21-28l-160-14s-40-3-43,42c0,0,3,41,43,39Z"/><path class="cls-1" d="M130.92,257.19c-38.8,0-42.22-40.5-42.25-40.92V216c1-14.74,5.93-26.07,14.71-33.69,13.06-11.33,29.73-10.23,30.43-10.17l160.12,14H294c23.44,4.27,22.65,29.8,22.64,30,0,20.23-20.28,25.8-20.49,25.86l-.29.05-56,6-106,9C132.84,257.16,131.87,257.19,130.92,257.19ZM92.67,216.1A51.78,51.78,0,0,0,99,235.49c7.24,12.49,18.88,18.42,34.6,17.63l105.91-9,55.82-6c1.74-.5,17.37-5.44,17.37-22,0-1,.63-22.33-19.26-26l-159.91-14c-.13,0-15.75-1-27.53,9.24C98.07,192.22,93.6,202.56,92.67,216.1Z"/><circle class="cls-1" cx="129.66" cy="215.12" r="12"/><ellipse class="cls-4" cx="184.94" cy="191.68" rx="1.69" ry="42.61" transform="translate(-24.26 356.54) rotate(-84.27)"/></svg>
